<?xml version="1.0" encoding="utf-8" standalone="no"?>
<!DOCTYPE svg PUBLIC "-//W3C//DTD SVG 1.1//EN"
  "http://www.w3.org/Graphics/SVG/1.1/DTD/svg11.dtd">
<svg xmlns:xlink="http://www.w3.org/1999/xlink" width="504pt" height="360pt" viewBox="0 0 504 360" xmlns="http://www.w3.org/2000/svg" version="1.1">
 <metadata>
  <rdf:RDF xmlns:dc="http://purl.org/dc/elements/1.1/" xmlns:cc="http://creativecommons.org/ns#" xmlns:rdf="http://www.w3.org/1999/02/22-rdf-syntax-ns#">
   <cc:Work>
    <dc:type rdf:resource="http://purl.org/dc/dcmitype/StillImage"/>
    <dc:date>2023-05-08T16:43:25.796875</dc:date>
    <dc:format>image/svg+xml</dc:format>
    <dc:creator>
     <cc:Agent>
      <dc:title>Matplotlib v3.6.2, https://matplotlib.org/</dc:title>
     </cc:Agent>
    </dc:creator>
   </cc:Work>
  </rdf:RDF>
 </metadata>
 <defs>
  <style type="text/css">*{stroke-linejoin: round; stroke-linecap: butt}</style>
 </defs>
 <g id="figure_1">
  <g id="patch_1">
   <path d="M 0 360 
L 504 360 
L 504 0 
L 0 0 
z
" style="fill: #ffffff"/>
  </g>
  <g id="axes_1">
   <g id="patch_2">
    <path d="M 63 320.4 
L 240.545455 320.4 
L 240.545455 43.2 
L 63 43.2 
z
" style="fill: #ffffff"/>
   </g>
   <g id="matplotlib.axis_1">
    <g id="xtick_1">
     <g id="line2d_1">
      <defs>
       <path id="mf4f79f8943" d="M 0 0 
L 0 6 
" style="stroke: #262626; stroke-width: 1.25"/>
      </defs>
      <g>
       <use xlink:href="#mf4f79f8943" x="107.386364" y="320.4" style="fill: #262626; stroke: #262626; stroke-width: 1.25"/>
      </g>
     </g>
     <g id="text_1">
      <!-- GTV-T -->
      <g style="fill: #262626" transform="translate(92.449496 343.584721) rotate(-10) scale(0.11 -0.11)">
       <defs>
        <path id="DejaVuSans-47" d="M 3809 666 
L 3809 1919 
L 2778 1919 
L 2778 2438 
L 4434 2438 
L 4434 434 
Q 4069 175 3628 42 
Q 3188 -91 2688 -91 
Q 1594 -91 976 548 
Q 359 1188 359 2328 
Q 359 3472 976 4111 
Q 1594 4750 2688 4750 
Q 3144 4750 3555 4637 
Q 3966 4525 4313 4306 
L 4313 3634 
Q 3963 3931 3569 4081 
Q 3175 4231 2741 4231 
Q 1884 4231 1454 3753 
Q 1025 3275 1025 2328 
Q 1025 1384 1454 906 
Q 1884 428 2741 428 
Q 3075 428 3337 486 
Q 3600 544 3809 666 
z
" transform="scale(0.015625)"/>
        <path id="DejaVuSans-54" d="M -19 4666 
L 3928 4666 
L 3928 4134 
L 2272 4134 
L 2272 0 
L 1638 0 
L 1638 4134 
L -19 4134 
L -19 4666 
z
" transform="scale(0.015625)"/>
        <path id="DejaVuSans-56" d="M 1831 0 
L 50 4666 
L 709 4666 
L 2188 738 
L 3669 4666 
L 4325 4666 
L 2547 0 
L 1831 0 
z
" transform="scale(0.015625)"/>
        <path id="DejaVuSans-2d" d="M 313 2009 
L 1997 2009 
L 1997 1497 
L 313 1497 
L 313 2009 
z
" transform="scale(0.015625)"/>
       </defs>
       <use xlink:href="#DejaVuSans-47"/>
       <use xlink:href="#DejaVuSans-54" x="73.865234"/>
       <use xlink:href="#DejaVuSans-56" x="134.949219"/>
       <use xlink:href="#DejaVuSans-2d" x="197.482422"/>
       <use xlink:href="#DejaVuSans-54" x="224.441406"/>
      </g>
     </g>
    </g>
    <g id="xtick_2">
     <g id="line2d_2">
      <g>
       <use xlink:href="#mf4f79f8943" x="196.159091" y="320.4" style="fill: #262626; stroke: #262626; stroke-width: 1.25"/>
      </g>
     </g>
     <g id="text_2">
      <!-- GTV-N -->
      <g style="fill: #262626" transform="translate(179.984059 344.021365) rotate(-10) scale(0.11 -0.11)">
       <defs>
        <path id="DejaVuSans-4e" d="M 628 4666 
L 1478 4666 
L 3547 763 
L 3547 4666 
L 4159 4666 
L 4159 0 
L 3309 0 
L 1241 3903 
L 1241 0 
L 628 0 
L 628 4666 
z
" transform="scale(0.015625)"/>
       </defs>
       <use xlink:href="#DejaVuSans-47"/>
       <use xlink:href="#DejaVuSans-54" x="73.865234"/>
       <use xlink:href="#DejaVuSans-56" x="134.949219"/>
       <use xlink:href="#DejaVuSans-2d" x="197.482422"/>
       <use xlink:href="#DejaVuSans-4e" x="233.566406"/>
      </g>
     </g>
    </g>
    <g id="text_3">
     <!-- GTV -->
     <g style="fill: #262626" transform="translate(139.572102 359.392392) scale(0.12 -0.12)">
      <use xlink:href="#DejaVuSans-47"/>
      <use xlink:href="#DejaVuSans-54" x="73.865234"/>
      <use xlink:href="#DejaVuSans-56" x="134.949219"/>
     </g>
    </g>
   </g>
   <g id="matplotlib.axis_2">
    <g id="ytick_1">
     <g id="line2d_3">
      <path d="M 63 320.4 
L 240.545455 320.4 
" clip-path="url(#p0a3af5607e)" style="fill: none; stroke: #cccccc; stroke-linecap: round"/>
     </g>
     <g id="line2d_4">
      <defs>
       <path id="m4acdca0061" d="M 0 0 
L -6 0 
" style="stroke: #262626; stroke-width: 1.25"/>
      </defs>
      <g>
       <use xlink:href="#m4acdca0061" x="63" y="320.4" style="fill: #262626; stroke: #262626; stroke-width: 1.25"/>
      </g>
     </g>
     <g id="text_4">
      <!-- 0.0 -->
      <g style="fill: #262626" transform="translate(36.006563 324.579141) scale(0.11 -0.11)">
       <defs>
        <path id="DejaVuSans-30" d="M 2034 4250 
Q 1547 4250 1301 3770 
Q 1056 3291 1056 2328 
Q 1056 1369 1301 889 
Q 1547 409 2034 409 
Q 2525 409 2770 889 
Q 3016 1369 3016 2328 
Q 3016 3291 2770 3770 
Q 2525 4250 2034 4250 
z
M 2034 4750 
Q 2819 4750 3233 4129 
Q 3647 3509 3647 2328 
Q 3647 1150 3233 529 
Q 2819 -91 2034 -91 
Q 1250 -91 836 529 
Q 422 1150 422 2328 
Q 422 3509 836 4129 
Q 1250 4750 2034 4750 
z
" transform="scale(0.015625)"/>
        <path id="DejaVuSans-2e" d="M 684 794 
L 1344 794 
L 1344 0 
L 684 0 
L 684 794 
z
" transform="scale(0.015625)"/>
       </defs>
       <use xlink:href="#DejaVuSans-30"/>
       <use xlink:href="#DejaVuSans-2e" x="63.623047"/>
       <use xlink:href="#DejaVuSans-30" x="95.410156"/>
      </g>
     </g>
    </g>
    <g id="ytick_2">
     <g id="line2d_5">
      <path d="M 63 264.96 
L 240.545455 264.96 
" clip-path="url(#p0a3af5607e)" style="fill: none; stroke: #cccccc; stroke-linecap: round"/>
     </g>
     <g id="line2d_6">
      <g>
       <use xlink:href="#m4acdca0061" x="63" y="264.96" style="fill: #262626; stroke: #262626; stroke-width: 1.25"/>
      </g>
     </g>
     <g id="text_5">
      <!-- 0.2 -->
      <g style="fill: #262626" transform="translate(36.006563 269.139141) scale(0.11 -0.11)">
       <defs>
        <path id="DejaVuSans-32" d="M 1228 531 
L 3431 531 
L 3431 0 
L 469 0 
L 469 531 
Q 828 903 1448 1529 
Q 2069 2156 2228 2338 
Q 2531 2678 2651 2914 
Q 2772 3150 2772 3378 
Q 2772 3750 2511 3984 
Q 2250 4219 1831 4219 
Q 1534 4219 1204 4116 
Q 875 4013 500 3803 
L 500 4441 
Q 881 4594 1212 4672 
Q 1544 4750 1819 4750 
Q 2544 4750 2975 4387 
Q 3406 4025 3406 3419 
Q 3406 3131 3298 2873 
Q 3191 2616 2906 2266 
Q 2828 2175 2409 1742 
Q 1991 1309 1228 531 
z
" transform="scale(0.015625)"/>
       </defs>
       <use xlink:href="#DejaVuSans-30"/>
       <use xlink:href="#DejaVuSans-2e" x="63.623047"/>
       <use xlink:href="#DejaVuSans-32" x="95.410156"/>
      </g>
     </g>
    </g>
    <g id="ytick_3">
     <g id="line2d_7">
      <path d="M 63 209.52 
L 240.545455 209.52 
" clip-path="url(#p0a3af5607e)" style="fill: none; stroke: #cccccc; stroke-linecap: round"/>
     </g>
     <g id="line2d_8">
      <g>
       <use xlink:href="#m4acdca0061" x="63" y="209.52" style="fill: #262626; stroke: #262626; stroke-width: 1.25"/>
      </g>
     </g>
     <g id="text_6">
      <!-- 0.4 -->
      <g style="fill: #262626" transform="translate(36.006563 213.699141) scale(0.11 -0.11)">
       <defs>
        <path id="DejaVuSans-34" d="M 2419 4116 
L 825 1625 
L 2419 1625 
L 2419 4116 
z
M 2253 4666 
L 3047 4666 
L 3047 1625 
L 3713 1625 
L 3713 1100 
L 3047 1100 
L 3047 0 
L 2419 0 
L 2419 1100 
L 313 1100 
L 313 1709 
L 2253 4666 
z
" transform="scale(0.015625)"/>
       </defs>
       <use xlink:href="#DejaVuSans-30"/>
       <use xlink:href="#DejaVuSans-2e" x="63.623047"/>
       <use xlink:href="#DejaVuSans-34" x="95.410156"/>
      </g>
     </g>
    </g>
    <g id="ytick_4">
     <g id="line2d_9">
      <path d="M 63 154.08 
L 240.545455 154.08 
" clip-path="url(#p0a3af5607e)" style="fill: none; stroke: #cccccc; stroke-linecap: round"/>
     </g>
     <g id="line2d_10">
      <g>
       <use xlink:href="#m4acdca0061" x="63" y="154.08" style="fill: #262626; stroke: #262626; stroke-width: 1.25"/>
      </g>
     </g>
     <g id="text_7">
      <!-- 0.6 -->
      <g style="fill: #262626" transform="translate(36.006563 158.259141) scale(0.11 -0.11)">
       <defs>
        <path id="DejaVuSans-36" d="M 2113 2584 
Q 1688 2584 1439 2293 
Q 1191 2003 1191 1497 
Q 1191 994 1439 701 
Q 1688 409 2113 409 
Q 2538 409 2786 701 
Q 3034 994 3034 1497 
Q 3034 2003 2786 2293 
Q 2538 2584 2113 2584 
z
M 3366 4563 
L 3366 3988 
Q 3128 4100 2886 4159 
Q 2644 4219 2406 4219 
Q 1781 4219 1451 3797 
Q 1122 3375 1075 2522 
Q 1259 2794 1537 2939 
Q 1816 3084 2150 3084 
Q 2853 3084 3261 2657 
Q 3669 2231 3669 1497 
Q 3669 778 3244 343 
Q 2819 -91 2113 -91 
Q 1303 -91 875 529 
Q 447 1150 447 2328 
Q 447 3434 972 4092 
Q 1497 4750 2381 4750 
Q 2619 4750 2861 4703 
Q 3103 4656 3366 4563 
z
" transform="scale(0.015625)"/>
       </defs>
       <use xlink:href="#DejaVuSans-30"/>
       <use xlink:href="#DejaVuSans-2e" x="63.623047"/>
       <use xlink:href="#DejaVuSans-36" x="95.410156"/>
      </g>
     </g>
    </g>
    <g id="ytick_5">
     <g id="line2d_11">
      <path d="M 63 98.64 
L 240.545455 98.64 
" clip-path="url(#p0a3af5607e)" style="fill: none; stroke: #cccccc; stroke-linecap: round"/>
     </g>
     <g id="line2d_12">
      <g>
       <use xlink:href="#m4acdca0061" x="63" y="98.64" style="fill: #262626; stroke: #262626; stroke-width: 1.25"/>
      </g>
     </g>
     <g id="text_8">
      <!-- 0.8 -->
      <g style="fill: #262626" transform="translate(36.006563 102.819141) scale(0.11 -0.11)">
       <defs>
        <path id="DejaVuSans-38" d="M 2034 2216 
Q 1584 2216 1326 1975 
Q 1069 1734 1069 1313 
Q 1069 891 1326 650 
Q 1584 409 2034 409 
Q 2484 409 2743 651 
Q 3003 894 3003 1313 
Q 3003 1734 2745 1975 
Q 2488 2216 2034 2216 
z
M 1403 2484 
Q 997 2584 770 2862 
Q 544 3141 544 3541 
Q 544 4100 942 4425 
Q 1341 4750 2034 4750 
Q 2731 4750 3128 4425 
Q 3525 4100 3525 3541 
Q 3525 3141 3298 2862 
Q 3072 2584 2669 2484 
Q 3125 2378 3379 2068 
Q 3634 1759 3634 1313 
Q 3634 634 3220 271 
Q 2806 -91 2034 -91 
Q 1263 -91 848 271 
Q 434 634 434 1313 
Q 434 1759 690 2068 
Q 947 2378 1403 2484 
z
M 1172 3481 
Q 1172 3119 1398 2916 
Q 1625 2713 2034 2713 
Q 2441 2713 2670 2916 
Q 2900 3119 2900 3481 
Q 2900 3844 2670 4047 
Q 2441 4250 2034 4250 
Q 1625 4250 1398 4047 
Q 1172 3844 1172 3481 
z
" transform="scale(0.015625)"/>
       </defs>
       <use xlink:href="#DejaVuSans-30"/>
       <use xlink:href="#DejaVuSans-2e" x="63.623047"/>
       <use xlink:href="#DejaVuSans-38" x="95.410156"/>
      </g>
     </g>
    </g>
    <g id="ytick_6">
     <g id="line2d_13">
      <path d="M 63 43.2 
L 240.545455 43.2 
" clip-path="url(#p0a3af5607e)" style="fill: none; stroke: #cccccc; stroke-linecap: round"/>
     </g>
     <g id="line2d_14">
      <g>
       <use xlink:href="#m4acdca0061" x="63" y="43.2" style="fill: #262626; stroke: #262626; stroke-width: 1.25"/>
      </g>
     </g>
     <g id="text_9">
      <!-- 1.0 -->
      <g style="fill: #262626" transform="translate(36.006563 47.379141) scale(0.11 -0.11)">
       <defs>
        <path id="DejaVuSans-31" d="M 794 531 
L 1825 531 
L 1825 4091 
L 703 3866 
L 703 4441 
L 1819 4666 
L 2450 4666 
L 2450 531 
L 3481 531 
L 3481 0 
L 794 0 
L 794 531 
z
" transform="scale(0.015625)"/>
       </defs>
       <use xlink:href="#DejaVuSans-31"/>
       <use xlink:href="#DejaVuSans-2e" x="63.623047"/>
       <use xlink:href="#DejaVuSans-30" x="95.410156"/>
      </g>
     </g>
    </g>
    <g id="text_10">
     <!-- False Discovery Rate -->
     <g style="fill: #262626" transform="translate(29.510937 244.077187) rotate(-90) scale(0.12 -0.12)">
      <defs>
       <path id="DejaVuSans-46" d="M 628 4666 
L 3309 4666 
L 3309 4134 
L 1259 4134 
L 1259 2759 
L 3109 2759 
L 3109 2228 
L 1259 2228 
L 1259 0 
L 628 0 
L 628 4666 
z
" transform="scale(0.015625)"/>
       <path id="DejaVuSans-61" d="M 2194 1759 
Q 1497 1759 1228 1600 
Q 959 1441 959 1056 
Q 959 750 1161 570 
Q 1363 391 1709 391 
Q 2188 391 2477 730 
Q 2766 1069 2766 1631 
L 2766 1759 
L 2194 1759 
z
M 3341 1997 
L 3341 0 
L 2766 0 
L 2766 531 
Q 2569 213 2275 61 
Q 1981 -91 1556 -91 
Q 1019 -91 701 211 
Q 384 513 384 1019 
Q 384 1609 779 1909 
Q 1175 2209 1959 2209 
L 2766 2209 
L 2766 2266 
Q 2766 2663 2505 2880 
Q 2244 3097 1772 3097 
Q 1472 3097 1187 3025 
Q 903 2953 641 2809 
L 641 3341 
Q 956 3463 1253 3523 
Q 1550 3584 1831 3584 
Q 2591 3584 2966 3190 
Q 3341 2797 3341 1997 
z
" transform="scale(0.015625)"/>
       <path id="DejaVuSans-6c" d="M 603 4863 
L 1178 4863 
L 1178 0 
L 603 0 
L 603 4863 
z
" transform="scale(0.015625)"/>
       <path id="DejaVuSans-73" d="M 2834 3397 
L 2834 2853 
Q 2591 2978 2328 3040 
Q 2066 3103 1784 3103 
Q 1356 3103 1142 2972 
Q 928 2841 928 2578 
Q 928 2378 1081 2264 
Q 1234 2150 1697 2047 
L 1894 2003 
Q 2506 1872 2764 1633 
Q 3022 1394 3022 966 
Q 3022 478 2636 193 
Q 2250 -91 1575 -91 
Q 1294 -91 989 -36 
Q 684 19 347 128 
L 347 722 
Q 666 556 975 473 
Q 1284 391 1588 391 
Q 1994 391 2212 530 
Q 2431 669 2431 922 
Q 2431 1156 2273 1281 
Q 2116 1406 1581 1522 
L 1381 1569 
Q 847 1681 609 1914 
Q 372 2147 372 2553 
Q 372 3047 722 3315 
Q 1072 3584 1716 3584 
Q 2034 3584 2315 3537 
Q 2597 3491 2834 3397 
z
" transform="scale(0.015625)"/>
       <path id="DejaVuSans-65" d="M 3597 1894 
L 3597 1613 
L 953 1613 
Q 991 1019 1311 708 
Q 1631 397 2203 397 
Q 2534 397 2845 478 
Q 3156 559 3463 722 
L 3463 178 
Q 3153 47 2828 -22 
Q 2503 -91 2169 -91 
Q 1331 -91 842 396 
Q 353 884 353 1716 
Q 353 2575 817 3079 
Q 1281 3584 2069 3584 
Q 2775 3584 3186 3129 
Q 3597 2675 3597 1894 
z
M 3022 2063 
Q 3016 2534 2758 2815 
Q 2500 3097 2075 3097 
Q 1594 3097 1305 2825 
Q 1016 2553 972 2059 
L 3022 2063 
z
" transform="scale(0.015625)"/>
       <path id="DejaVuSans-20" transform="scale(0.015625)"/>
       <path id="DejaVuSans-44" d="M 1259 4147 
L 1259 519 
L 2022 519 
Q 2988 519 3436 956 
Q 3884 1394 3884 2338 
Q 3884 3275 3436 3711 
Q 2988 4147 2022 4147 
L 1259 4147 
z
M 628 4666 
L 1925 4666 
Q 3281 4666 3915 4102 
Q 4550 3538 4550 2338 
Q 4550 1131 3912 565 
Q 3275 0 1925 0 
L 628 0 
L 628 4666 
z
" transform="scale(0.015625)"/>
       <path id="DejaVuSans-69" d="M 603 3500 
L 1178 3500 
L 1178 0 
L 603 0 
L 603 3500 
z
M 603 4863 
L 1178 4863 
L 1178 4134 
L 603 4134 
L 603 4863 
z
" transform="scale(0.015625)"/>
       <path id="DejaVuSans-63" d="M 3122 3366 
L 3122 2828 
Q 2878 2963 2633 3030 
Q 2388 3097 2138 3097 
Q 1578 3097 1268 2742 
Q 959 2388 959 1747 
Q 959 1106 1268 751 
Q 1578 397 2138 397 
Q 2388 397 2633 464 
Q 2878 531 3122 666 
L 3122 134 
Q 2881 22 2623 -34 
Q 2366 -91 2075 -91 
Q 1284 -91 818 406 
Q 353 903 353 1747 
Q 353 2603 823 3093 
Q 1294 3584 2113 3584 
Q 2378 3584 2631 3529 
Q 2884 3475 3122 3366 
z
" transform="scale(0.015625)"/>
       <path id="DejaVuSans-6f" d="M 1959 3097 
Q 1497 3097 1228 2736 
Q 959 2375 959 1747 
Q 959 1119 1226 758 
Q 1494 397 1959 397 
Q 2419 397 2687 759 
Q 2956 1122 2956 1747 
Q 2956 2369 2687 2733 
Q 2419 3097 1959 3097 
z
M 1959 3584 
Q 2709 3584 3137 3096 
Q 3566 2609 3566 1747 
Q 3566 888 3137 398 
Q 2709 -91 1959 -91 
Q 1206 -91 779 398 
Q 353 888 353 1747 
Q 353 2609 779 3096 
Q 1206 3584 1959 3584 
z
" transform="scale(0.015625)"/>
       <path id="DejaVuSans-76" d="M 191 3500 
L 800 3500 
L 1894 563 
L 2988 3500 
L 3597 3500 
L 2284 0 
L 1503 0 
L 191 3500 
z
" transform="scale(0.015625)"/>
       <path id="DejaVuSans-72" d="M 2631 2963 
Q 2534 3019 2420 3045 
Q 2306 3072 2169 3072 
Q 1681 3072 1420 2755 
Q 1159 2438 1159 1844 
L 1159 0 
L 581 0 
L 581 3500 
L 1159 3500 
L 1159 2956 
Q 1341 3275 1631 3429 
Q 1922 3584 2338 3584 
Q 2397 3584 2469 3576 
Q 2541 3569 2628 3553 
L 2631 2963 
z
" transform="scale(0.015625)"/>
       <path id="DejaVuSans-79" d="M 2059 -325 
Q 1816 -950 1584 -1140 
Q 1353 -1331 966 -1331 
L 506 -1331 
L 506 -850 
L 844 -850 
Q 1081 -850 1212 -737 
Q 1344 -625 1503 -206 
L 1606 56 
L 191 3500 
L 800 3500 
L 1894 763 
L 2988 3500 
L 3597 3500 
L 2059 -325 
z
" transform="scale(0.015625)"/>
       <path id="DejaVuSans-52" d="M 2841 2188 
Q 3044 2119 3236 1894 
Q 3428 1669 3622 1275 
L 4263 0 
L 3584 0 
L 2988 1197 
Q 2756 1666 2539 1819 
Q 2322 1972 1947 1972 
L 1259 1972 
L 1259 0 
L 628 0 
L 628 4666 
L 2053 4666 
Q 2853 4666 3247 4331 
Q 3641 3997 3641 3322 
Q 3641 2881 3436 2590 
Q 3231 2300 2841 2188 
z
M 1259 4147 
L 1259 2491 
L 2053 2491 
Q 2509 2491 2742 2702 
Q 2975 2913 2975 3322 
Q 2975 3731 2742 3939 
Q 2509 4147 2053 4147 
L 1259 4147 
z
" transform="scale(0.015625)"/>
       <path id="DejaVuSans-74" d="M 1172 4494 
L 1172 3500 
L 2356 3500 
L 2356 3053 
L 1172 3053 
L 1172 1153 
Q 1172 725 1289 603 
Q 1406 481 1766 481 
L 2356 481 
L 2356 0 
L 1766 0 
Q 1100 0 847 248 
Q 594 497 594 1153 
L 594 3053 
L 172 3053 
L 172 3500 
L 594 3500 
L 594 4494 
L 1172 4494 
z
" transform="scale(0.015625)"/>
      </defs>
      <use xlink:href="#DejaVuSans-46"/>
      <use xlink:href="#DejaVuSans-61" x="48.394531"/>
      <use xlink:href="#DejaVuSans-6c" x="109.673828"/>
      <use xlink:href="#DejaVuSans-73" x="137.457031"/>
      <use xlink:href="#DejaVuSans-65" x="189.556641"/>
      <use xlink:href="#DejaVuSans-20" x="251.080078"/>
      <use xlink:href="#DejaVuSans-44" x="282.867188"/>
      <use xlink:href="#DejaVuSans-69" x="359.869141"/>
      <use xlink:href="#DejaVuSans-73" x="387.652344"/>
      <use xlink:href="#DejaVuSans-63" x="439.751953"/>
      <use xlink:href="#DejaVuSans-6f" x="494.732422"/>
      <use xlink:href="#DejaVuSans-76" x="555.914062"/>
      <use xlink:href="#DejaVuSans-65" x="615.09375"/>
      <use xlink:href="#DejaVuSans-72" x="676.617188"/>
      <use xlink:href="#DejaVuSans-79" x="717.730469"/>
      <use xlink:href="#DejaVuSans-20" x="776.910156"/>
      <use xlink:href="#DejaVuSans-52" x="808.697266"/>
      <use xlink:href="#DejaVuSans-61" x="875.929688"/>
      <use xlink:href="#DejaVuSans-74" x="937.208984"/>
      <use xlink:href="#DejaVuSans-65" x="976.417969"/>
     </g>
    </g>
   </g>
   <g id="patch_3">
    <path d="M 72.232364 283.656311 
L 107.031273 283.656311 
L 107.031273 234.919044 
L 72.232364 234.919044 
L 72.232364 283.656311 
z
" clip-path="url(#p0a3af5607e)" style="fill: #c0c7d4; stroke: #797979; stroke-width: 1.5; stroke-linejoin: miter"/>
   </g>
   <g id="patch_4">
    <path d="M 107.741455 287.941724 
L 142.540364 287.941724 
L 142.540364 247.611103 
L 107.741455 247.611103 
L 107.741455 287.941724 
z
" clip-path="url(#p0a3af5607e)" style="fill: #dbbdbc; stroke: #797979; stroke-width: 1.5; stroke-linejoin: miter"/>
   </g>
   <g id="patch_5">
    <path d="M 161.005091 289.123009 
L 195.804 289.123009 
L 195.804 234.606489 
L 161.005091 234.606489 
L 161.005091 289.123009 
z
" clip-path="url(#p0a3af5607e)" style="fill: #c0c7d4; stroke: #797979; stroke-width: 1.5; stroke-linejoin: miter"/>
   </g>
   <g id="patch_6">
    <path d="M 196.514182 297.678866 
L 231.313091 297.678866 
L 231.313091 263.706799 
L 196.514182 263.706799 
L 196.514182 297.678866 
z
" clip-path="url(#p0a3af5607e)" style="fill: #dbbdbc; stroke: #797979; stroke-width: 1.5; stroke-linejoin: miter"/>
   </g>
   <g id="patch_7">
    <path d="M 107.386364 320.4 
L 107.386364 320.4 
L 107.386364 320.4 
L 107.386364 320.4 
z
" clip-path="url(#p0a3af5607e)" style="fill: #c0c7d4; stroke: #797979; stroke-width: 0.75; stroke-linejoin: miter"/>
   </g>
   <g id="patch_8">
    <path d="M 107.386364 320.4 
L 107.386364 320.4 
L 107.386364 320.4 
L 107.386364 320.4 
z
" clip-path="url(#p0a3af5607e)" style="fill: #dbbdbc; stroke: #797979; stroke-width: 0.75; stroke-linejoin: miter"/>
   </g>
   <g id="line2d_15">
    <path d="M 89.631818 283.656311 
L 89.631818 320.147196 
" clip-path="url(#p0a3af5607e)" style="fill: none; stroke: #797979; stroke-width: 1.5; stroke-linecap: round"/>
   </g>
   <g id="line2d_16">
    <path d="M 89.631818 234.919044 
L 89.631818 167.371867 
" clip-path="url(#p0a3af5607e)" style="fill: none; stroke: #797979; stroke-width: 1.5; stroke-linecap: round"/>
   </g>
   <g id="line2d_17">
    <path d="M 80.932091 320.147196 
L 98.331545 320.147196 
" clip-path="url(#p0a3af5607e)" style="fill: none; stroke: #797979; stroke-width: 1.5; stroke-linecap: round"/>
   </g>
   <g id="line2d_18">
    <path d="M 80.932091 167.371867 
L 98.331545 167.371867 
" clip-path="url(#p0a3af5607e)" style="fill: none; stroke: #797979; stroke-width: 1.5; stroke-linecap: round"/>
   </g>
   <g id="line2d_19">
    <defs>
     <path id="m4bdac138f5" d="M -0 3.535534 
L 2.12132 0 
L -0 -3.535534 
L -2.12132 -0 
z
" style="stroke: #797979; stroke-linejoin: miter"/>
    </defs>
    <g clip-path="url(#p0a3af5607e)">
     <use xlink:href="#m4bdac138f5" x="89.631818" y="141.026495" style="fill: #797979; stroke: #797979; stroke-linejoin: miter"/>
     <use xlink:href="#m4bdac138f5" x="89.631818" y="85.521721" style="fill: #797979; stroke: #797979; stroke-linejoin: miter"/>
     <use xlink:href="#m4bdac138f5" x="89.631818" y="124.504724" style="fill: #797979; stroke: #797979; stroke-linejoin: miter"/>
     <use xlink:href="#m4bdac138f5" x="89.631818" y="146.368421" style="fill: #797979; stroke: #797979; stroke-linejoin: miter"/>
     <use xlink:href="#m4bdac138f5" x="89.631818" y="135.083348" style="fill: #797979; stroke: #797979; stroke-linejoin: miter"/>
     <use xlink:href="#m4bdac138f5" x="89.631818" y="43.2" style="fill: #797979; stroke: #797979; stroke-linejoin: miter"/>
     <use xlink:href="#m4bdac138f5" x="89.631818" y="43.2" style="fill: #797979; stroke: #797979; stroke-linejoin: miter"/>
     <use xlink:href="#m4bdac138f5" x="89.631818" y="147.704803" style="fill: #797979; stroke: #797979; stroke-linejoin: miter"/>
     <use xlink:href="#m4bdac138f5" x="89.631818" y="91.075526" style="fill: #797979; stroke: #797979; stroke-linejoin: miter"/>
     <use xlink:href="#m4bdac138f5" x="89.631818" y="159.913318" style="fill: #797979; stroke: #797979; stroke-linejoin: miter"/>
    </g>
   </g>
   <g id="line2d_20">
    <path d="M 125.140909 287.941724 
L 125.140909 320.304149 
" clip-path="url(#p0a3af5607e)" style="fill: none; stroke: #797979; stroke-width: 1.5; stroke-linecap: round"/>
   </g>
   <g id="line2d_21">
    <path d="M 125.140909 247.611103 
L 125.140909 205.91654 
" clip-path="url(#p0a3af5607e)" style="fill: none; stroke: #797979; stroke-width: 1.5; stroke-linecap: round"/>
   </g>
   <g id="line2d_22">
    <path d="M 116.441182 320.304149 
L 133.840636 320.304149 
" clip-path="url(#p0a3af5607e)" style="fill: none; stroke: #797979; stroke-width: 1.5; stroke-linecap: round"/>
   </g>
   <g id="line2d_23">
    <path d="M 116.441182 205.91654 
L 133.840636 205.91654 
" clip-path="url(#p0a3af5607e)" style="fill: none; stroke: #797979; stroke-width: 1.5; stroke-linecap: round"/>
   </g>
   <g id="line2d_24">
    <g clip-path="url(#p0a3af5607e)">
     <use xlink:href="#m4bdac138f5" x="125.140909" y="179.253708" style="fill: #797979; stroke: #797979; stroke-linejoin: miter"/>
     <use xlink:href="#m4bdac138f5" x="125.140909" y="149.544906" style="fill: #797979; stroke: #797979; stroke-linejoin: miter"/>
     <use xlink:href="#m4bdac138f5" x="125.140909" y="101.898921" style="fill: #797979; stroke: #797979; stroke-linejoin: miter"/>
     <use xlink:href="#m4bdac138f5" x="125.140909" y="142.645257" style="fill: #797979; stroke: #797979; stroke-linejoin: miter"/>
     <use xlink:href="#m4bdac138f5" x="125.140909" y="154.315414" style="fill: #797979; stroke: #797979; stroke-linejoin: miter"/>
     <use xlink:href="#m4bdac138f5" x="125.140909" y="179.64026" style="fill: #797979; stroke: #797979; stroke-linejoin: miter"/>
     <use xlink:href="#m4bdac138f5" x="125.140909" y="159.949515" style="fill: #797979; stroke: #797979; stroke-linejoin: miter"/>
     <use xlink:href="#m4bdac138f5" x="125.140909" y="177.228363" style="fill: #797979; stroke: #797979; stroke-linejoin: miter"/>
     <use xlink:href="#m4bdac138f5" x="125.140909" y="171.634286" style="fill: #797979; stroke: #797979; stroke-linejoin: miter"/>
    </g>
   </g>
   <g id="line2d_25">
    <path d="M 178.404545 289.123009 
L 178.404545 320.4 
" clip-path="url(#p0a3af5607e)" style="fill: none; stroke: #797979; stroke-width: 1.5; stroke-linecap: round"/>
   </g>
   <g id="line2d_26">
    <path d="M 178.404545 234.606489 
L 178.404545 162.309375 
" clip-path="url(#p0a3af5607e)" style="fill: none; stroke: #797979; stroke-width: 1.5; stroke-linecap: round"/>
   </g>
   <g id="line2d_27">
    <path d="M 169.704818 320.4 
L 187.104273 320.4 
" clip-path="url(#p0a3af5607e)" style="fill: none; stroke: #797979; stroke-width: 1.5; stroke-linecap: round"/>
   </g>
   <g id="line2d_28">
    <path d="M 169.704818 162.309375 
L 187.104273 162.309375 
" clip-path="url(#p0a3af5607e)" style="fill: none; stroke: #797979; stroke-width: 1.5; stroke-linecap: round"/>
   </g>
   <g id="line2d_29">
    <g clip-path="url(#p0a3af5607e)">
     <use xlink:href="#m4bdac138f5" x="178.404545" y="43.2" style="fill: #797979; stroke: #797979; stroke-linejoin: miter"/>
     <use xlink:href="#m4bdac138f5" x="178.404545" y="104.147435" style="fill: #797979; stroke: #797979; stroke-linejoin: miter"/>
     <use xlink:href="#m4bdac138f5" x="178.404545" y="43.2" style="fill: #797979; stroke: #797979; stroke-linejoin: miter"/>
     <use xlink:href="#m4bdac138f5" x="178.404545" y="43.2" style="fill: #797979; stroke: #797979; stroke-linejoin: miter"/>
     <use xlink:href="#m4bdac138f5" x="178.404545" y="43.2" style="fill: #797979; stroke: #797979; stroke-linejoin: miter"/>
     <use xlink:href="#m4bdac138f5" x="178.404545" y="46.883326" style="fill: #797979; stroke: #797979; stroke-linejoin: miter"/>
     <use xlink:href="#m4bdac138f5" x="178.404545" y="43.2" style="fill: #797979; stroke: #797979; stroke-linejoin: miter"/>
     <use xlink:href="#m4bdac138f5" x="178.404545" y="43.2" style="fill: #797979; stroke: #797979; stroke-linejoin: miter"/>
     <use xlink:href="#m4bdac138f5" x="178.404545" y="43.2" style="fill: #797979; stroke: #797979; stroke-linejoin: miter"/>
     <use xlink:href="#m4bdac138f5" x="178.404545" y="43.2" style="fill: #797979; stroke: #797979; stroke-linejoin: miter"/>
     <use xlink:href="#m4bdac138f5" x="178.404545" y="43.2" style="fill: #797979; stroke: #797979; stroke-linejoin: miter"/>
     <use xlink:href="#m4bdac138f5" x="178.404545" y="43.2" style="fill: #797979; stroke: #797979; stroke-linejoin: miter"/>
     <use xlink:href="#m4bdac138f5" x="178.404545" y="43.2" style="fill: #797979; stroke: #797979; stroke-linejoin: miter"/>
     <use xlink:href="#m4bdac138f5" x="178.404545" y="43.2" style="fill: #797979; stroke: #797979; stroke-linejoin: miter"/>
    </g>
   </g>
   <g id="line2d_30">
    <path d="M 213.913636 297.678866 
L 213.913636 320.4 
" clip-path="url(#p0a3af5607e)" style="fill: none; stroke: #797979; stroke-width: 1.5; stroke-linecap: round"/>
   </g>
   <g id="line2d_31">
    <path d="M 213.913636 263.706799 
L 213.913636 218.636461 
" clip-path="url(#p0a3af5607e)" style="fill: none; stroke: #797979; stroke-width: 1.5; stroke-linecap: round"/>
   </g>
   <g id="line2d_32">
    <path d="M 205.213909 320.4 
L 222.613364 320.4 
" clip-path="url(#p0a3af5607e)" style="fill: none; stroke: #797979; stroke-width: 1.5; stroke-linecap: round"/>
   </g>
   <g id="line2d_33">
    <path d="M 205.213909 218.636461 
L 222.613364 218.636461 
" clip-path="url(#p0a3af5607e)" style="fill: none; stroke: #797979; stroke-width: 1.5; stroke-linecap: round"/>
   </g>
   <g id="line2d_34">
    <g clip-path="url(#p0a3af5607e)">
     <use xlink:href="#m4bdac138f5" x="213.913636" y="120.326984" style="fill: #797979; stroke: #797979; stroke-linejoin: miter"/>
     <use xlink:href="#m4bdac138f5" x="213.913636" y="43.2" style="fill: #797979; stroke: #797979; stroke-linejoin: miter"/>
     <use xlink:href="#m4bdac138f5" x="213.913636" y="202.396753" style="fill: #797979; stroke: #797979; stroke-linejoin: miter"/>
     <use xlink:href="#m4bdac138f5" x="213.913636" y="207.600154" style="fill: #797979; stroke: #797979; stroke-linejoin: miter"/>
    </g>
   </g>
   <g id="line2d_35">
    <path d="M 178.404545 34.884 
L 178.404545 29.34 
L 213.913636 29.34 
L 213.913636 34.884 
" style="fill: none; stroke: #333333; stroke-width: 1.5; stroke-linecap: round"/>
   </g>
   <g id="line2d_36">
    <path d="M 89.631818 34.884 
L 89.631818 29.34 
L 125.140909 29.34 
L 125.140909 34.884 
" style="fill: none; stroke: #333333; stroke-width: 1.5; stroke-linecap: round"/>
   </g>
   <g id="line2d_37">
    <path d="M 72.232364 262.700311 
L 107.031273 262.700311 
" clip-path="url(#p0a3af5607e)" style="fill: none; stroke: #797979; stroke-width: 1.5; stroke-linecap: round"/>
   </g>
   <g id="line2d_38">
    <path d="M 107.741455 270.262821 
L 142.540364 270.262821 
" clip-path="url(#p0a3af5607e)" style="fill: none; stroke: #797979; stroke-width: 1.5; stroke-linecap: round"/>
   </g>
   <g id="line2d_39">
    <path d="M 161.005091 269.749752 
L 195.804 269.749752 
" clip-path="url(#p0a3af5607e)" style="fill: none; stroke: #797979; stroke-width: 1.5; stroke-linecap: round"/>
   </g>
   <g id="line2d_40">
    <path d="M 196.514182 281.578135 
L 231.313091 281.578135 
" clip-path="url(#p0a3af5607e)" style="fill: none; stroke: #797979; stroke-width: 1.5; stroke-linecap: round"/>
   </g>
   <g id="patch_9">
    <path d="M 107.386364 320.4 
L 196.159091 320.4 
" style="fill: none; stroke: #262626; stroke-width: 1.25; stroke-linejoin: miter; stroke-linecap: square"/>
   </g>
   <g id="text_11">
    <path d="M 83.362443 263.396561 
L 84.768693 263.396561 
L 84.768693 264.907811 
L 83.362443 264.907811 
L 83.362443 263.396561 
z
M 87.890256 263.802811 
L 90.456506 263.802811 
L 90.456506 264.907811 
L 86.217756 264.907811 
L 86.217756 263.802811 
L 88.346506 261.922811 
Q 88.632756 261.665311 88.769006 261.419061 
Q 88.905256 261.172811 88.905256 260.907811 
Q 88.905256 260.497811 88.630256 260.247811 
Q 88.355256 259.997811 87.897756 259.997811 
Q 87.546506 259.997811 87.127756 260.147811 
Q 86.710256 260.297811 86.234006 260.595311 
L 86.234006 259.314061 
Q 86.741506 259.146561 87.237756 259.059061 
Q 87.734006 258.970311 88.210256 258.970311 
Q 89.257756 258.970311 89.837756 259.431561 
Q 90.417756 259.891561 90.417756 260.716561 
Q 90.417756 261.192811 90.171506 261.605311 
Q 89.925256 262.016561 89.136506 262.709061 
L 87.890256 263.802811 
z
M 92.089162 263.869061 
L 93.417912 263.869061 
L 93.417912 260.099061 
L 92.054162 260.380311 
L 92.054162 259.356561 
L 93.409162 259.075311 
L 94.839162 259.075311 
L 94.839162 263.869061 
L 96.167912 263.869061 
L 96.167912 264.907811 
L 92.089162 264.907811 
L 92.089162 263.869061 
z
" style="fill: #ffffff; stroke: #797979; stroke-width: 2"/>
    <path d="M 83.362443 263.396561 
L 84.768693 263.396561 
L 84.768693 264.907811 
L 83.362443 264.907811 
L 83.362443 263.396561 
z
M 87.890256 263.802811 
L 90.456506 263.802811 
L 90.456506 264.907811 
L 86.217756 264.907811 
L 86.217756 263.802811 
L 88.346506 261.922811 
Q 88.632756 261.665311 88.769006 261.419061 
Q 88.905256 261.172811 88.905256 260.907811 
Q 88.905256 260.497811 88.630256 260.247811 
Q 88.355256 259.997811 87.897756 259.997811 
Q 87.546506 259.997811 87.127756 260.147811 
Q 86.710256 260.297811 86.234006 260.595311 
L 86.234006 259.314061 
Q 86.741506 259.146561 87.237756 259.059061 
Q 87.734006 258.970311 88.210256 258.970311 
Q 89.257756 258.970311 89.837756 259.431561 
Q 90.417756 259.891561 90.417756 260.716561 
Q 90.417756 261.192811 90.171506 261.605311 
Q 89.925256 262.016561 89.136506 262.709061 
L 87.890256 263.802811 
z
M 92.089162 263.869061 
L 93.417912 263.869061 
L 93.417912 260.099061 
L 92.054162 260.380311 
L 92.054162 259.356561 
L 93.409162 259.075311 
L 94.839162 259.075311 
L 94.839162 263.869061 
L 96.167912 263.869061 
L 96.167912 264.907811 
L 92.089162 264.907811 
L 92.089162 263.869061 
z
" style="fill: #ffffff"/>
   </g>
   <g id="text_12">
    <path d="M 118.871534 270.959071 
L 120.277784 270.959071 
L 120.277784 272.470321 
L 118.871534 272.470321 
L 118.871534 270.959071 
z
M 122.031847 271.431571 
L 123.360597 271.431571 
L 123.360597 267.661571 
L 121.996847 267.942821 
L 121.996847 266.919071 
L 123.351847 266.637821 
L 124.781847 266.637821 
L 124.781847 271.431571 
L 126.110597 271.431571 
L 126.110597 272.470321 
L 122.031847 272.470321 
L 122.031847 271.431571 
z
M 129.445753 269.860321 
Q 129.024503 269.860321 128.797003 270.091571 
Q 128.570753 270.321571 128.570753 270.751571 
Q 128.570753 271.181571 128.797003 271.410321 
Q 129.024503 271.637821 129.445753 271.637821 
Q 129.864503 271.637821 130.087003 271.410321 
Q 130.309503 271.181571 130.309503 270.751571 
Q 130.309503 270.317821 130.087003 270.089071 
Q 129.864503 269.860321 129.445753 269.860321 
z
M 128.348253 269.365321 
Q 127.817003 269.204071 127.547003 268.872821 
Q 127.278253 268.540321 127.278253 268.044071 
Q 127.278253 267.306571 127.828253 266.920321 
Q 128.379503 266.532821 129.445753 266.532821 
Q 130.504503 266.532821 131.054503 266.917821 
Q 131.605753 267.302821 131.605753 268.044071 
Q 131.605753 268.540321 131.334503 268.872821 
Q 131.063253 269.204071 130.532003 269.365321 
Q 131.125753 269.529071 131.428253 269.897821 
Q 131.730753 270.266571 131.730753 270.829071 
Q 131.730753 271.696571 131.154503 272.140321 
Q 130.578253 272.584071 129.445753 272.584071 
Q 128.309503 272.584071 127.729503 272.140321 
Q 127.149503 271.696571 127.149503 270.829071 
Q 127.149503 270.266571 127.452003 269.897821 
Q 127.754503 269.529071 128.348253 269.365321 
z
M 128.699503 268.196571 
Q 128.699503 268.544071 128.893253 268.731571 
Q 129.087003 268.919071 129.445753 268.919071 
Q 129.797003 268.919071 129.988253 268.731571 
Q 130.180753 268.544071 130.180753 268.196571 
Q 130.180753 267.849071 129.988253 267.664071 
Q 129.797003 267.477821 129.445753 267.477821 
Q 129.087003 267.477821 128.893253 267.665321 
Q 128.699503 267.852821 128.699503 268.196571 
z
" style="fill: #ffffff; stroke: #797979; stroke-width: 2"/>
    <path d="M 118.871534 270.959071 
L 120.277784 270.959071 
L 120.277784 272.470321 
L 118.871534 272.470321 
L 118.871534 270.959071 
z
M 122.031847 271.431571 
L 123.360597 271.431571 
L 123.360597 267.661571 
L 121.996847 267.942821 
L 121.996847 266.919071 
L 123.351847 266.637821 
L 124.781847 266.637821 
L 124.781847 271.431571 
L 126.110597 271.431571 
L 126.110597 272.470321 
L 122.031847 272.470321 
L 122.031847 271.431571 
z
M 129.445753 269.860321 
Q 129.024503 269.860321 128.797003 270.091571 
Q 128.570753 270.321571 128.570753 270.751571 
Q 128.570753 271.181571 128.797003 271.410321 
Q 129.024503 271.637821 129.445753 271.637821 
Q 129.864503 271.637821 130.087003 271.410321 
Q 130.309503 271.181571 130.309503 270.751571 
Q 130.309503 270.317821 130.087003 270.089071 
Q 129.864503 269.860321 129.445753 269.860321 
z
M 128.348253 269.365321 
Q 127.817003 269.204071 127.547003 268.872821 
Q 127.278253 268.540321 127.278253 268.044071 
Q 127.278253 267.306571 127.828253 266.920321 
Q 128.379503 266.532821 129.445753 266.532821 
Q 130.504503 266.532821 131.054503 266.917821 
Q 131.605753 267.302821 131.605753 268.044071 
Q 131.605753 268.540321 131.334503 268.872821 
Q 131.063253 269.204071 130.532003 269.365321 
Q 131.125753 269.529071 131.428253 269.897821 
Q 131.730753 270.266571 131.730753 270.829071 
Q 131.730753 271.696571 131.154503 272.140321 
Q 130.578253 272.584071 129.445753 272.584071 
Q 128.309503 272.584071 127.729503 272.140321 
Q 127.149503 271.696571 127.149503 270.829071 
Q 127.149503 270.266571 127.452003 269.897821 
Q 127.754503 269.529071 128.348253 269.365321 
z
M 128.699503 268.196571 
Q 128.699503 268.544071 128.893253 268.731571 
Q 129.087003 268.919071 129.445753 268.919071 
Q 129.797003 268.919071 129.988253 268.731571 
Q 130.180753 268.544071 130.180753 268.196571 
Q 130.180753 267.849071 129.988253 267.664071 
Q 129.797003 267.477821 129.445753 267.477821 
Q 129.087003 267.477821 128.893253 267.665321 
Q 128.699503 267.852821 128.699503 268.196571 
z
" style="fill: #ffffff"/>
   </g>
   <g id="text_13">
    <path d="M 172.13517 270.446002 
L 173.54142 270.446002 
L 173.54142 271.957252 
L 172.13517 271.957252 
L 172.13517 270.446002 
z
M 175.295483 270.918502 
L 176.624233 270.918502 
L 176.624233 267.148502 
L 175.260483 267.429752 
L 175.260483 266.406002 
L 176.615483 266.124752 
L 178.045483 266.124752 
L 178.045483 270.918502 
L 179.374233 270.918502 
L 179.374233 271.957252 
L 175.295483 271.957252 
L 175.295483 270.918502 
z
M 182.709389 269.347252 
Q 182.288139 269.347252 182.060639 269.578502 
Q 181.834389 269.808502 181.834389 270.238502 
Q 181.834389 270.668502 182.060639 270.897252 
Q 182.288139 271.124752 182.709389 271.124752 
Q 183.128139 271.124752 183.350639 270.897252 
Q 183.573139 270.668502 183.573139 270.238502 
Q 183.573139 269.804752 183.350639 269.576002 
Q 183.128139 269.347252 182.709389 269.347252 
z
M 181.611889 268.852252 
Q 181.080639 268.691002 180.810639 268.359752 
Q 180.541889 268.027252 180.541889 267.531002 
Q 180.541889 266.793502 181.091889 266.407252 
Q 181.643139 266.019752 182.709389 266.019752 
Q 183.768139 266.019752 184.318139 266.404752 
Q 184.869389 266.789752 184.869389 267.531002 
Q 184.869389 268.027252 184.598139 268.359752 
Q 184.326889 268.691002 183.795639 268.852252 
Q 184.389389 269.016002 184.691889 269.384752 
Q 184.994389 269.753502 184.994389 270.316002 
Q 184.994389 271.183502 184.418139 271.627252 
Q 183.841889 272.071002 182.709389 272.071002 
Q 181.573139 272.071002 180.993139 271.627252 
Q 180.413139 271.183502 180.413139 270.316002 
Q 180.413139 269.753502 180.715639 269.384752 
Q 181.018139 269.016002 181.611889 268.852252 
z
M 181.963139 267.683502 
Q 181.963139 268.031002 182.156889 268.218502 
Q 182.350639 268.406002 182.709389 268.406002 
Q 183.060639 268.406002 183.251889 268.218502 
Q 183.444389 268.031002 183.444389 267.683502 
Q 183.444389 267.336002 183.251889 267.151002 
Q 183.060639 266.964752 182.709389 266.964752 
Q 182.350639 266.964752 182.156889 267.152252 
Q 181.963139 267.339752 181.963139 267.683502 
z
" style="fill: #ffffff; stroke: #797979; stroke-width: 2"/>
    <path d="M 172.13517 270.446002 
L 173.54142 270.446002 
L 173.54142 271.957252 
L 172.13517 271.957252 
L 172.13517 270.446002 
z
M 175.295483 270.918502 
L 176.624233 270.918502 
L 176.624233 267.148502 
L 175.260483 267.429752 
L 175.260483 266.406002 
L 176.615483 266.124752 
L 178.045483 266.124752 
L 178.045483 270.918502 
L 179.374233 270.918502 
L 179.374233 271.957252 
L 175.295483 271.957252 
L 175.295483 270.918502 
z
M 182.709389 269.347252 
Q 182.288139 269.347252 182.060639 269.578502 
Q 181.834389 269.808502 181.834389 270.238502 
Q 181.834389 270.668502 182.060639 270.897252 
Q 182.288139 271.124752 182.709389 271.124752 
Q 183.128139 271.124752 183.350639 270.897252 
Q 183.573139 270.668502 183.573139 270.238502 
Q 183.573139 269.804752 183.350639 269.576002 
Q 183.128139 269.347252 182.709389 269.347252 
z
M 181.611889 268.852252 
Q 181.080639 268.691002 180.810639 268.359752 
Q 180.541889 268.027252 180.541889 267.531002 
Q 180.541889 266.793502 181.091889 266.407252 
Q 181.643139 266.019752 182.709389 266.019752 
Q 183.768139 266.019752 184.318139 266.404752 
Q 184.869389 266.789752 184.869389 267.531002 
Q 184.869389 268.027252 184.598139 268.359752 
Q 184.326889 268.691002 183.795639 268.852252 
Q 184.389389 269.016002 184.691889 269.384752 
Q 184.994389 269.753502 184.994389 270.316002 
Q 184.994389 271.183502 184.418139 271.627252 
Q 183.841889 272.071002 182.709389 272.071002 
Q 181.573139 272.071002 180.993139 271.627252 
Q 180.413139 271.183502 180.413139 270.316002 
Q 180.413139 269.753502 180.715639 269.384752 
Q 181.018139 269.016002 181.611889 268.852252 
z
M 181.963139 267.683502 
Q 181.963139 268.031002 182.156889 268.218502 
Q 182.350639 268.406002 182.709389 268.406002 
Q 183.060639 268.406002 183.251889 268.218502 
Q 183.444389 268.031002 183.444389 267.683502 
Q 183.444389 267.336002 183.251889 267.151002 
Q 183.060639 266.964752 182.709389 266.964752 
Q 182.350639 266.964752 182.156889 267.152252 
Q 181.963139 267.339752 181.963139 267.683502 
z
" style="fill: #ffffff"/>
   </g>
   <g id="text_14">
    <path d="M 207.644261 282.274385 
L 209.050511 282.274385 
L 209.050511 283.785635 
L 207.644261 283.785635 
L 207.644261 282.274385 
z
M 210.804574 282.746885 
L 212.133324 282.746885 
L 212.133324 278.976885 
L 210.769574 279.258135 
L 210.769574 278.234385 
L 212.124574 277.953135 
L 213.554574 277.953135 
L 213.554574 282.746885 
L 214.883324 282.746885 
L 214.883324 283.785635 
L 210.804574 283.785635 
L 210.804574 282.746885 
z
M 218.37848 279.191885 
L 216.73098 281.633135 
L 218.37848 281.633135 
L 218.37848 279.191885 
z
M 218.12848 277.953135 
L 219.80098 277.953135 
L 219.80098 281.633135 
L 220.63223 281.633135 
L 220.63223 282.723135 
L 219.80098 282.723135 
L 219.80098 283.785635 
L 218.37848 283.785635 
L 218.37848 282.723135 
L 215.79348 282.723135 
L 215.79348 281.434385 
L 218.12848 277.953135 
z
" style="fill: #ffffff; stroke: #797979; stroke-width: 2"/>
    <path d="M 207.644261 282.274385 
L 209.050511 282.274385 
L 209.050511 283.785635 
L 207.644261 283.785635 
L 207.644261 282.274385 
z
M 210.804574 282.746885 
L 212.133324 282.746885 
L 212.133324 278.976885 
L 210.769574 279.258135 
L 210.769574 278.234385 
L 212.124574 277.953135 
L 213.554574 277.953135 
L 213.554574 282.746885 
L 214.883324 282.746885 
L 214.883324 283.785635 
L 210.804574 283.785635 
L 210.804574 282.746885 
z
M 218.37848 279.191885 
L 216.73098 281.633135 
L 218.37848 281.633135 
L 218.37848 279.191885 
z
M 218.12848 277.953135 
L 219.80098 277.953135 
L 219.80098 281.633135 
L 220.63223 281.633135 
L 220.63223 282.723135 
L 219.80098 282.723135 
L 219.80098 283.785635 
L 218.37848 283.785635 
L 218.37848 282.723135 
L 215.79348 282.723135 
L 215.79348 281.434385 
L 218.12848 277.953135 
z
" style="fill: #ffffff"/>
   </g>
   <g id="text_15">
    <!-- p ≤ 1e-4 -->
    <g style="fill: #262626" transform="translate(170.016903 25.844375) scale(0.12 -0.12)">
     <defs>
      <path id="DejaVuSans-70" d="M 1159 525 
L 1159 -1331 
L 581 -1331 
L 581 3500 
L 1159 3500 
L 1159 2969 
Q 1341 3281 1617 3432 
Q 1894 3584 2278 3584 
Q 2916 3584 3314 3078 
Q 3713 2572 3713 1747 
Q 3713 922 3314 415 
Q 2916 -91 2278 -91 
Q 1894 -91 1617 61 
Q 1341 213 1159 525 
z
M 3116 1747 
Q 3116 2381 2855 2742 
Q 2594 3103 2138 3103 
Q 1681 3103 1420 2742 
Q 1159 2381 1159 1747 
Q 1159 1113 1420 752 
Q 1681 391 2138 391 
Q 2594 391 2855 752 
Q 3116 1113 3116 1747 
z
" transform="scale(0.015625)"/>
      <path id="DejaVuSans-2264" d="M 4684 3175 
L 1684 2309 
L 4684 1453 
L 4684 897 
L 678 2047 
L 678 2578 
L 4684 3725 
L 4684 3175 
z
M 678 531 
L 4684 531 
L 4684 0 
L 678 0 
L 678 531 
z
" transform="scale(0.015625)"/>
     </defs>
     <use xlink:href="#DejaVuSans-70"/>
     <use xlink:href="#DejaVuSans-20" x="63.476562"/>
     <use xlink:href="#DejaVuSans-2264" x="95.263672"/>
     <use xlink:href="#DejaVuSans-20" x="179.052734"/>
     <use xlink:href="#DejaVuSans-31" x="210.839844"/>
     <use xlink:href="#DejaVuSans-65" x="274.462891"/>
     <use xlink:href="#DejaVuSans-2d" x="335.986328"/>
     <use xlink:href="#DejaVuSans-34" x="372.070312"/>
    </g>
   </g>
   <g id="text_16">
    <!-- p ≤ 1e-5 -->
    <g style="fill: #262626" transform="translate(81.244176 25.844375) scale(0.12 -0.12)">
     <defs>
      <path id="DejaVuSans-35" d="M 691 4666 
L 3169 4666 
L 3169 4134 
L 1269 4134 
L 1269 2991 
Q 1406 3038 1543 3061 
Q 1681 3084 1819 3084 
Q 2600 3084 3056 2656 
Q 3513 2228 3513 1497 
Q 3513 744 3044 326 
Q 2575 -91 1722 -91 
Q 1428 -91 1123 -41 
Q 819 9 494 109 
L 494 744 
Q 775 591 1075 516 
Q 1375 441 1709 441 
Q 2250 441 2565 725 
Q 2881 1009 2881 1497 
Q 2881 1984 2565 2268 
Q 2250 2553 1709 2553 
Q 1456 2553 1204 2497 
Q 953 2441 691 2322 
L 691 4666 
z
" transform="scale(0.015625)"/>
     </defs>
     <use xlink:href="#DejaVuSans-70"/>
     <use xlink:href="#DejaVuSans-20" x="63.476562"/>
     <use xlink:href="#DejaVuSans-2264" x="95.263672"/>
     <use xlink:href="#DejaVuSans-20" x="179.052734"/>
     <use xlink:href="#DejaVuSans-31" x="210.839844"/>
     <use xlink:href="#DejaVuSans-65" x="274.462891"/>
     <use xlink:href="#DejaVuSans-2d" x="335.986328"/>
     <use xlink:href="#DejaVuSans-35" x="372.070312"/>
    </g>
   </g>
   <g id="legend_1">
    <g id="patch_10">
     <path d="M 98.973736 84.291875 
L 232.845455 84.291875 
Q 235.045455 84.291875 235.045455 82.091875 
L 235.045455 50.9 
Q 235.045455 48.7 232.845455 48.7 
L 98.973736 48.7 
Q 96.773736 48.7 96.773736 50.9 
L 96.773736 82.091875 
Q 96.773736 84.291875 98.973736 84.291875 
z
" style="fill: #ffffff; opacity: 0.8; stroke: #cccccc; stroke-linejoin: miter"/>
    </g>
    <g id="patch_11">
     <path d="M 101.173736 61.458281 
L 123.173736 61.458281 
L 123.173736 53.758281 
L 101.173736 53.758281 
z
" style="fill: #c0c7d4; stroke: #797979; stroke-width: 0.75; stroke-linejoin: miter"/>
    </g>
    <g id="text_17">
     <!-- scans only -->
     <g style="fill: #262626" transform="translate(131.973736 61.458281) scale(0.11 -0.11)">
      <defs>
       <path id="DejaVuSans-6e" d="M 3513 2113 
L 3513 0 
L 2938 0 
L 2938 2094 
Q 2938 2591 2744 2837 
Q 2550 3084 2163 3084 
Q 1697 3084 1428 2787 
Q 1159 2491 1159 1978 
L 1159 0 
L 581 0 
L 581 3500 
L 1159 3500 
L 1159 2956 
Q 1366 3272 1645 3428 
Q 1925 3584 2291 3584 
Q 2894 3584 3203 3211 
Q 3513 2838 3513 2113 
z
" transform="scale(0.015625)"/>
      </defs>
      <use xlink:href="#DejaVuSans-73"/>
      <use xlink:href="#DejaVuSans-63" x="52.099609"/>
      <use xlink:href="#DejaVuSans-61" x="107.080078"/>
      <use xlink:href="#DejaVuSans-6e" x="168.359375"/>
      <use xlink:href="#DejaVuSans-73" x="231.738281"/>
      <use xlink:href="#DejaVuSans-20" x="283.837891"/>
      <use xlink:href="#DejaVuSans-6f" x="315.625"/>
      <use xlink:href="#DejaVuSans-6e" x="376.806641"/>
      <use xlink:href="#DejaVuSans-6c" x="440.185547"/>
      <use xlink:href="#DejaVuSans-79" x="467.96875"/>
     </g>
    </g>
    <g id="patch_12">
     <path d="M 101.173736 77.604219 
L 123.173736 77.604219 
L 123.173736 69.904219 
L 101.173736 69.904219 
z
" style="fill: #dbbdbc; stroke: #797979; stroke-width: 0.75; stroke-linejoin: miter"/>
    </g>
    <g id="text_18">
     <!-- scans &amp; user feed -->
     <g style="fill: #262626" transform="translate(131.973736 77.604219) scale(0.11 -0.11)">
      <defs>
       <path id="DejaVuSans-26" d="M 1556 2509 
Q 1272 2256 1139 2004 
Q 1006 1753 1006 1478 
Q 1006 1022 1337 719 
Q 1669 416 2169 416 
Q 2466 416 2725 514 
Q 2984 613 3213 813 
L 1556 2509 
z
M 1997 2859 
L 3584 1234 
Q 3769 1513 3872 1830 
Q 3975 2147 3994 2503 
L 4575 2503 
Q 4538 2091 4375 1687 
Q 4213 1284 3922 891 
L 4794 0 
L 4006 0 
L 3559 459 
Q 3234 181 2878 45 
Q 2522 -91 2113 -91 
Q 1359 -91 881 339 
Q 403 769 403 1441 
Q 403 1841 612 2192 
Q 822 2544 1241 2853 
Q 1091 3050 1012 3245 
Q 934 3441 934 3628 
Q 934 4134 1281 4442 
Q 1628 4750 2203 4750 
Q 2463 4750 2720 4694 
Q 2978 4638 3244 4525 
L 3244 3956 
Q 2972 4103 2725 4179 
Q 2478 4256 2266 4256 
Q 1938 4256 1733 4082 
Q 1528 3909 1528 3634 
Q 1528 3475 1620 3314 
Q 1713 3153 1997 2859 
z
" transform="scale(0.015625)"/>
       <path id="DejaVuSans-75" d="M 544 1381 
L 544 3500 
L 1119 3500 
L 1119 1403 
Q 1119 906 1312 657 
Q 1506 409 1894 409 
Q 2359 409 2629 706 
Q 2900 1003 2900 1516 
L 2900 3500 
L 3475 3500 
L 3475 0 
L 2900 0 
L 2900 538 
Q 2691 219 2414 64 
Q 2138 -91 1772 -91 
Q 1169 -91 856 284 
Q 544 659 544 1381 
z
M 1991 3584 
L 1991 3584 
z
" transform="scale(0.015625)"/>
       <path id="DejaVuSans-66" d="M 2375 4863 
L 2375 4384 
L 1825 4384 
Q 1516 4384 1395 4259 
Q 1275 4134 1275 3809 
L 1275 3500 
L 2222 3500 
L 2222 3053 
L 1275 3053 
L 1275 0 
L 697 0 
L 697 3053 
L 147 3053 
L 147 3500 
L 697 3500 
L 697 3744 
Q 697 4328 969 4595 
Q 1241 4863 1831 4863 
L 2375 4863 
z
" transform="scale(0.015625)"/>
       <path id="DejaVuSans-64" d="M 2906 2969 
L 2906 4863 
L 3481 4863 
L 3481 0 
L 2906 0 
L 2906 525 
Q 2725 213 2448 61 
Q 2172 -91 1784 -91 
Q 1150 -91 751 415 
Q 353 922 353 1747 
Q 353 2572 751 3078 
Q 1150 3584 1784 3584 
Q 2172 3584 2448 3432 
Q 2725 3281 2906 2969 
z
M 947 1747 
Q 947 1113 1208 752 
Q 1469 391 1925 391 
Q 2381 391 2643 752 
Q 2906 1113 2906 1747 
Q 2906 2381 2643 2742 
Q 2381 3103 1925 3103 
Q 1469 3103 1208 2742 
Q 947 2381 947 1747 
z
" transform="scale(0.015625)"/>
      </defs>
      <use xlink:href="#DejaVuSans-73"/>
      <use xlink:href="#DejaVuSans-63" x="52.099609"/>
      <use xlink:href="#DejaVuSans-61" x="107.080078"/>
      <use xlink:href="#DejaVuSans-6e" x="168.359375"/>
      <use xlink:href="#DejaVuSans-73" x="231.738281"/>
      <use xlink:href="#DejaVuSans-20" x="283.837891"/>
      <use xlink:href="#DejaVuSans-26" x="315.625"/>
      <use xlink:href="#DejaVuSans-20" x="393.603516"/>
      <use xlink:href="#DejaVuSans-75" x="425.390625"/>
      <use xlink:href="#DejaVuSans-73" x="488.769531"/>
      <use xlink:href="#DejaVuSans-65" x="540.869141"/>
      <use xlink:href="#DejaVuSans-72" x="602.392578"/>
      <use xlink:href="#DejaVuSans-20" x="643.505859"/>
      <use xlink:href="#DejaVuSans-66" x="675.292969"/>
      <use xlink:href="#DejaVuSans-65" x="710.498047"/>
      <use xlink:href="#DejaVuSans-65" x="772.021484"/>
      <use xlink:href="#DejaVuSans-64" x="833.544922"/>
     </g>
    </g>
   </g>
  </g>
  <g id="axes_2">
   <g id="patch_13">
    <path d="M 276.054545 320.4 
L 453.6 320.4 
L 453.6 43.2 
L 276.054545 43.2 
z
" style="fill: #ffffff"/>
   </g>
   <g id="matplotlib.axis_3">
    <g id="xtick_3">
     <g id="line2d_41">
      <g>
       <use xlink:href="#mf4f79f8943" x="320.440909" y="320.4" style="fill: #262626; stroke: #262626; stroke-width: 1.25"/>
      </g>
     </g>
     <g id="text_19">
      <!-- GTV-T -->
      <g style="fill: #262626" transform="translate(305.504042 343.584721) rotate(-10) scale(0.11 -0.11)">
       <use xlink:href="#DejaVuSans-47"/>
       <use xlink:href="#DejaVuSans-54" x="73.865234"/>
       <use xlink:href="#DejaVuSans-56" x="134.949219"/>
       <use xlink:href="#DejaVuSans-2d" x="197.482422"/>
       <use xlink:href="#DejaVuSans-54" x="224.441406"/>
      </g>
     </g>
    </g>
    <g id="xtick_4">
     <g id="line2d_42">
      <g>
       <use xlink:href="#mf4f79f8943" x="409.213636" y="320.4" style="fill: #262626; stroke: #262626; stroke-width: 1.25"/>
      </g>
     </g>
     <g id="text_20">
      <!-- GTV-N -->
      <g style="fill: #262626" transform="translate(393.038604 344.021365) rotate(-10) scale(0.11 -0.11)">
       <use xlink:href="#DejaVuSans-47"/>
       <use xlink:href="#DejaVuSans-54" x="73.865234"/>
       <use xlink:href="#DejaVuSans-56" x="134.949219"/>
       <use xlink:href="#DejaVuSans-2d" x="197.482422"/>
       <use xlink:href="#DejaVuSans-4e" x="233.566406"/>
      </g>
     </g>
    </g>
    <g id="text_21">
     <!-- GTV -->
     <g style="fill: #262626" transform="translate(352.626648 359.392392) scale(0.12 -0.12)">
      <use xlink:href="#DejaVuSans-47"/>
      <use xlink:href="#DejaVuSans-54" x="73.865234"/>
      <use xlink:href="#DejaVuSans-56" x="134.949219"/>
     </g>
    </g>
   </g>
   <g id="matplotlib.axis_4">
    <g id="ytick_7">
     <g id="line2d_43">
      <path d="M 276.054545 320.4 
L 453.6 320.4 
" clip-path="url(#paa6b1f6fa7)" style="fill: none; stroke: #cccccc; stroke-linecap: round"/>
     </g>
     <g id="line2d_44">
      <g>
       <use xlink:href="#m4acdca0061" x="276.054545" y="320.4" style="fill: #262626; stroke: #262626; stroke-width: 1.25"/>
      </g>
     </g>
     <g id="text_22">
      <!-- 0.0 -->
      <g style="fill: #262626" transform="translate(249.061108 324.579141) scale(0.11 -0.11)">
       <use xlink:href="#DejaVuSans-30"/>
       <use xlink:href="#DejaVuSans-2e" x="63.623047"/>
       <use xlink:href="#DejaVuSans-30" x="95.410156"/>
      </g>
     </g>
    </g>
    <g id="ytick_8">
     <g id="line2d_45">
      <path d="M 276.054545 264.96 
L 453.6 264.96 
" clip-path="url(#paa6b1f6fa7)" style="fill: none; stroke: #cccccc; stroke-linecap: round"/>
     </g>
     <g id="line2d_46">
      <g>
       <use xlink:href="#m4acdca0061" x="276.054545" y="264.96" style="fill: #262626; stroke: #262626; stroke-width: 1.25"/>
      </g>
     </g>
     <g id="text_23">
      <!-- 0.2 -->
      <g style="fill: #262626" transform="translate(249.061108 269.139141) scale(0.11 -0.11)">
       <use xlink:href="#DejaVuSans-30"/>
       <use xlink:href="#DejaVuSans-2e" x="63.623047"/>
       <use xlink:href="#DejaVuSans-32" x="95.410156"/>
      </g>
     </g>
    </g>
    <g id="ytick_9">
     <g id="line2d_47">
      <path d="M 276.054545 209.52 
L 453.6 209.52 
" clip-path="url(#paa6b1f6fa7)" style="fill: none; stroke: #cccccc; stroke-linecap: round"/>
     </g>
     <g id="line2d_48">
      <g>
       <use xlink:href="#m4acdca0061" x="276.054545" y="209.52" style="fill: #262626; stroke: #262626; stroke-width: 1.25"/>
      </g>
     </g>
     <g id="text_24">
      <!-- 0.4 -->
      <g style="fill: #262626" transform="translate(249.061108 213.699141) scale(0.11 -0.11)">
       <use xlink:href="#DejaVuSans-30"/>
       <use xlink:href="#DejaVuSans-2e" x="63.623047"/>
       <use xlink:href="#DejaVuSans-34" x="95.410156"/>
      </g>
     </g>
    </g>
    <g id="ytick_10">
     <g id="line2d_49">
      <path d="M 276.054545 154.08 
L 453.6 154.08 
" clip-path="url(#paa6b1f6fa7)" style="fill: none; stroke: #cccccc; stroke-linecap: round"/>
     </g>
     <g id="line2d_50">
      <g>
       <use xlink:href="#m4acdca0061" x="276.054545" y="154.08" style="fill: #262626; stroke: #262626; stroke-width: 1.25"/>
      </g>
     </g>
     <g id="text_25">
      <!-- 0.6 -->
      <g style="fill: #262626" transform="translate(249.061108 158.259141) scale(0.11 -0.11)">
       <use xlink:href="#DejaVuSans-30"/>
       <use xlink:href="#DejaVuSans-2e" x="63.623047"/>
       <use xlink:href="#DejaVuSans-36" x="95.410156"/>
      </g>
     </g>
    </g>
    <g id="ytick_11">
     <g id="line2d_51">
      <path d="M 276.054545 98.64 
L 453.6 98.64 
" clip-path="url(#paa6b1f6fa7)" style="fill: none; stroke: #cccccc; stroke-linecap: round"/>
     </g>
     <g id="line2d_52">
      <g>
       <use xlink:href="#m4acdca0061" x="276.054545" y="98.64" style="fill: #262626; stroke: #262626; stroke-width: 1.25"/>
      </g>
     </g>
     <g id="text_26">
      <!-- 0.8 -->
      <g style="fill: #262626" transform="translate(249.061108 102.819141) scale(0.11 -0.11)">
       <use xlink:href="#DejaVuSans-30"/>
       <use xlink:href="#DejaVuSans-2e" x="63.623047"/>
       <use xlink:href="#DejaVuSans-38" x="95.410156"/>
      </g>
     </g>
    </g>
    <g id="ytick_12">
     <g id="line2d_53">
      <path d="M 276.054545 43.2 
L 453.6 43.2 
" clip-path="url(#paa6b1f6fa7)" style="fill: none; stroke: #cccccc; stroke-linecap: round"/>
     </g>
     <g id="line2d_54">
      <g>
       <use xlink:href="#m4acdca0061" x="276.054545" y="43.2" style="fill: #262626; stroke: #262626; stroke-width: 1.25"/>
      </g>
     </g>
     <g id="text_27">
      <!-- 1.0 -->
      <g style="fill: #262626" transform="translate(249.061108 47.379141) scale(0.11 -0.11)">
       <use xlink:href="#DejaVuSans-31"/>
       <use xlink:href="#DejaVuSans-2e" x="63.623047"/>
       <use xlink:href="#DejaVuSans-30" x="95.410156"/>
      </g>
     </g>
    </g>
    <g id="text_28">
     <!-- False Negative Rate -->
     <g style="fill: #262626" transform="translate(242.565483 241.362187) rotate(-90) scale(0.12 -0.12)">
      <defs>
       <path id="DejaVuSans-67" d="M 2906 1791 
Q 2906 2416 2648 2759 
Q 2391 3103 1925 3103 
Q 1463 3103 1205 2759 
Q 947 2416 947 1791 
Q 947 1169 1205 825 
Q 1463 481 1925 481 
Q 2391 481 2648 825 
Q 2906 1169 2906 1791 
z
M 3481 434 
Q 3481 -459 3084 -895 
Q 2688 -1331 1869 -1331 
Q 1566 -1331 1297 -1286 
Q 1028 -1241 775 -1147 
L 775 -588 
Q 1028 -725 1275 -790 
Q 1522 -856 1778 -856 
Q 2344 -856 2625 -561 
Q 2906 -266 2906 331 
L 2906 616 
Q 2728 306 2450 153 
Q 2172 0 1784 0 
Q 1141 0 747 490 
Q 353 981 353 1791 
Q 353 2603 747 3093 
Q 1141 3584 1784 3584 
Q 2172 3584 2450 3431 
Q 2728 3278 2906 2969 
L 2906 3500 
L 3481 3500 
L 3481 434 
z
" transform="scale(0.015625)"/>
      </defs>
      <use xlink:href="#DejaVuSans-46"/>
      <use xlink:href="#DejaVuSans-61" x="48.394531"/>
      <use xlink:href="#DejaVuSans-6c" x="109.673828"/>
      <use xlink:href="#DejaVuSans-73" x="137.457031"/>
      <use xlink:href="#DejaVuSans-65" x="189.556641"/>
      <use xlink:href="#DejaVuSans-20" x="251.080078"/>
      <use xlink:href="#DejaVuSans-4e" x="282.867188"/>
      <use xlink:href="#DejaVuSans-65" x="357.671875"/>
      <use xlink:href="#DejaVuSans-67" x="419.195312"/>
      <use xlink:href="#DejaVuSans-61" x="482.671875"/>
      <use xlink:href="#DejaVuSans-74" x="543.951172"/>
      <use xlink:href="#DejaVuSans-69" x="583.160156"/>
      <use xlink:href="#DejaVuSans-76" x="610.943359"/>
      <use xlink:href="#DejaVuSans-65" x="670.123047"/>
      <use xlink:href="#DejaVuSans-20" x="731.646484"/>
      <use xlink:href="#DejaVuSans-52" x="763.433594"/>
      <use xlink:href="#DejaVuSans-61" x="830.666016"/>
      <use xlink:href="#DejaVuSans-74" x="891.945312"/>
      <use xlink:href="#DejaVuSans-65" x="931.154297"/>
     </g>
    </g>
   </g>
   <g id="patch_14">
    <path d="M 285.286909 284.893545 
L 320.085818 284.893545 
L 320.085818 201.162431 
L 285.286909 201.162431 
L 285.286909 284.893545 
z
" clip-path="url(#paa6b1f6fa7)" style="fill: #c0c7d4; stroke: #797979; stroke-width: 1.5; stroke-linejoin: miter"/>
   </g>
   <g id="patch_15">
    <path d="M 320.796 283.433771 
L 355.594909 283.433771 
L 355.594909 209.061759 
L 320.796 209.061759 
L 320.796 283.433771 
z
" clip-path="url(#paa6b1f6fa7)" style="fill: #dbbdbc; stroke: #797979; stroke-width: 1.5; stroke-linejoin: miter"/>
   </g>
   <g id="patch_16">
    <path d="M 374.059636 287.690715 
L 408.858545 287.690715 
L 408.858545 242.867719 
L 374.059636 242.867719 
L 374.059636 287.690715 
z
" clip-path="url(#paa6b1f6fa7)" style="fill: #c0c7d4; stroke: #797979; stroke-width: 1.5; stroke-linejoin: miter"/>
   </g>
   <g id="patch_17">
    <path d="M 409.568727 290.136516 
L 444.367636 290.136516 
L 444.367636 259.765605 
L 409.568727 259.765605 
L 409.568727 290.136516 
z
" clip-path="url(#paa6b1f6fa7)" style="fill: #dbbdbc; stroke: #797979; stroke-width: 1.5; stroke-linejoin: miter"/>
   </g>
   <g id="patch_18">
    <path d="M 320.440909 320.4 
L 320.440909 320.4 
L 320.440909 320.4 
L 320.440909 320.4 
z
" clip-path="url(#paa6b1f6fa7)" style="fill: #c0c7d4; stroke: #797979; stroke-width: 0.75; stroke-linejoin: miter"/>
   </g>
   <g id="patch_19">
    <path d="M 320.440909 320.4 
L 320.440909 320.4 
L 320.440909 320.4 
L 320.440909 320.4 
z
" clip-path="url(#paa6b1f6fa7)" style="fill: #dbbdbc; stroke: #797979; stroke-width: 0.75; stroke-linejoin: miter"/>
   </g>
   <g id="line2d_55">
    <path d="M 302.686364 284.893545 
L 302.686364 315.405405 
" clip-path="url(#paa6b1f6fa7)" style="fill: none; stroke: #797979; stroke-width: 1.5; stroke-linecap: round"/>
   </g>
   <g id="line2d_56">
    <path d="M 302.686364 201.162431 
L 302.686364 79.179364 
" clip-path="url(#paa6b1f6fa7)" style="fill: none; stroke: #797979; stroke-width: 1.5; stroke-linecap: round"/>
   </g>
   <g id="line2d_57">
    <path d="M 293.986636 315.405405 
L 311.386091 315.405405 
" clip-path="url(#paa6b1f6fa7)" style="fill: none; stroke: #797979; stroke-width: 1.5; stroke-linecap: round"/>
   </g>
   <g id="line2d_58">
    <path d="M 293.986636 79.179364 
L 311.386091 79.179364 
" clip-path="url(#paa6b1f6fa7)" style="fill: none; stroke: #797979; stroke-width: 1.5; stroke-linecap: round"/>
   </g>
   <g id="line2d_59">
    <g clip-path="url(#paa6b1f6fa7)">
     <use xlink:href="#m4bdac138f5" x="302.686364" y="68.951767" style="fill: #797979; stroke: #797979; stroke-linejoin: miter"/>
     <use xlink:href="#m4bdac138f5" x="302.686364" y="43.2" style="fill: #797979; stroke: #797979; stroke-linejoin: miter"/>
     <use xlink:href="#m4bdac138f5" x="302.686364" y="43.2" style="fill: #797979; stroke: #797979; stroke-linejoin: miter"/>
     <use xlink:href="#m4bdac138f5" x="302.686364" y="48.715147" style="fill: #797979; stroke: #797979; stroke-linejoin: miter"/>
    </g>
   </g>
   <g id="line2d_60">
    <path d="M 338.195455 283.433771 
L 338.195455 317.028226 
" clip-path="url(#paa6b1f6fa7)" style="fill: none; stroke: #797979; stroke-width: 1.5; stroke-linecap: round"/>
   </g>
   <g id="line2d_61">
    <path d="M 338.195455 209.061759 
L 338.195455 110.595036 
" clip-path="url(#paa6b1f6fa7)" style="fill: none; stroke: #797979; stroke-width: 1.5; stroke-linecap: round"/>
   </g>
   <g id="line2d_62">
    <path d="M 329.495727 317.028226 
L 346.895182 317.028226 
" clip-path="url(#paa6b1f6fa7)" style="fill: none; stroke: #797979; stroke-width: 1.5; stroke-linecap: round"/>
   </g>
   <g id="line2d_63">
    <path d="M 329.495727 110.595036 
L 346.895182 110.595036 
" clip-path="url(#paa6b1f6fa7)" style="fill: none; stroke: #797979; stroke-width: 1.5; stroke-linecap: round"/>
   </g>
   <g id="line2d_64">
    <g clip-path="url(#paa6b1f6fa7)">
     <use xlink:href="#m4bdac138f5" x="338.195455" y="85.37644" style="fill: #797979; stroke: #797979; stroke-linejoin: miter"/>
     <use xlink:href="#m4bdac138f5" x="338.195455" y="52.273655" style="fill: #797979; stroke: #797979; stroke-linejoin: miter"/>
     <use xlink:href="#m4bdac138f5" x="338.195455" y="87.543888" style="fill: #797979; stroke: #797979; stroke-linejoin: miter"/>
    </g>
   </g>
   <g id="line2d_65">
    <path d="M 391.459091 287.690715 
L 391.459091 313.098462 
" clip-path="url(#paa6b1f6fa7)" style="fill: none; stroke: #797979; stroke-width: 1.5; stroke-linecap: round"/>
   </g>
   <g id="line2d_66">
    <path d="M 391.459091 242.867719 
L 391.459091 183.592796 
" clip-path="url(#paa6b1f6fa7)" style="fill: none; stroke: #797979; stroke-width: 1.5; stroke-linecap: round"/>
   </g>
   <g id="line2d_67">
    <path d="M 382.759364 313.098462 
L 400.158818 313.098462 
" clip-path="url(#paa6b1f6fa7)" style="fill: none; stroke: #797979; stroke-width: 1.5; stroke-linecap: round"/>
   </g>
   <g id="line2d_68">
    <path d="M 382.759364 183.592796 
L 400.158818 183.592796 
" clip-path="url(#paa6b1f6fa7)" style="fill: none; stroke: #797979; stroke-width: 1.5; stroke-linecap: round"/>
   </g>
   <g id="line2d_69">
    <g clip-path="url(#paa6b1f6fa7)">
     <use xlink:href="#m4bdac138f5" x="391.459091" y="114.935043" style="fill: #797979; stroke: #797979; stroke-linejoin: miter"/>
     <use xlink:href="#m4bdac138f5" x="391.459091" y="114.463804" style="fill: #797979; stroke: #797979; stroke-linejoin: miter"/>
     <use xlink:href="#m4bdac138f5" x="391.459091" y="43.2" style="fill: #797979; stroke: #797979; stroke-linejoin: miter"/>
     <use xlink:href="#m4bdac138f5" x="391.459091" y="171.547397" style="fill: #797979; stroke: #797979; stroke-linejoin: miter"/>
     <use xlink:href="#m4bdac138f5" x="391.459091" y="43.2" style="fill: #797979; stroke: #797979; stroke-linejoin: miter"/>
     <use xlink:href="#m4bdac138f5" x="391.459091" y="47.586524" style="fill: #797979; stroke: #797979; stroke-linejoin: miter"/>
     <use xlink:href="#m4bdac138f5" x="391.459091" y="43.2" style="fill: #797979; stroke: #797979; stroke-linejoin: miter"/>
     <use xlink:href="#m4bdac138f5" x="391.459091" y="43.2" style="fill: #797979; stroke: #797979; stroke-linejoin: miter"/>
     <use xlink:href="#m4bdac138f5" x="391.459091" y="163.366021" style="fill: #797979; stroke: #797979; stroke-linejoin: miter"/>
    </g>
   </g>
   <g id="line2d_70">
    <path d="M 426.968182 290.136516 
L 426.968182 313.518462 
" clip-path="url(#paa6b1f6fa7)" style="fill: none; stroke: #797979; stroke-width: 1.5; stroke-linecap: round"/>
   </g>
   <g id="line2d_71">
    <path d="M 426.968182 259.765605 
L 426.968182 214.942703 
" clip-path="url(#paa6b1f6fa7)" style="fill: none; stroke: #797979; stroke-width: 1.5; stroke-linecap: round"/>
   </g>
   <g id="line2d_72">
    <path d="M 418.268455 313.518462 
L 435.667909 313.518462 
" clip-path="url(#paa6b1f6fa7)" style="fill: none; stroke: #797979; stroke-width: 1.5; stroke-linecap: round"/>
   </g>
   <g id="line2d_73">
    <path d="M 418.268455 214.942703 
L 435.667909 214.942703 
" clip-path="url(#paa6b1f6fa7)" style="fill: none; stroke: #797979; stroke-width: 1.5; stroke-linecap: round"/>
   </g>
   <g id="line2d_74">
    <g clip-path="url(#paa6b1f6fa7)">
     <use xlink:href="#m4bdac138f5" x="426.968182" y="194.026125" style="fill: #797979; stroke: #797979; stroke-linejoin: miter"/>
     <use xlink:href="#m4bdac138f5" x="426.968182" y="211.246154" style="fill: #797979; stroke: #797979; stroke-linejoin: miter"/>
     <use xlink:href="#m4bdac138f5" x="426.968182" y="210.310477" style="fill: #797979; stroke: #797979; stroke-linejoin: miter"/>
    </g>
   </g>
   <g id="line2d_75">
    <path d="M 391.459091 34.884 
L 391.459091 29.34 
L 426.968182 29.34 
L 426.968182 34.884 
" style="fill: none; stroke: #333333; stroke-width: 1.5; stroke-linecap: round"/>
   </g>
   <g id="line2d_76">
    <path d="M 302.686364 34.884 
L 302.686364 29.34 
L 338.195455 29.34 
L 338.195455 34.884 
" style="fill: none; stroke: #333333; stroke-width: 1.5; stroke-linecap: round"/>
   </g>
   <g id="line2d_77">
    <path d="M 285.286909 250.519941 
L 320.085818 250.519941 
" clip-path="url(#paa6b1f6fa7)" style="fill: none; stroke: #797979; stroke-width: 1.5; stroke-linecap: round"/>
   </g>
   <g id="line2d_78">
    <path d="M 320.796 257.337313 
L 355.594909 257.337313 
" clip-path="url(#paa6b1f6fa7)" style="fill: none; stroke: #797979; stroke-width: 1.5; stroke-linecap: round"/>
   </g>
   <g id="line2d_79">
    <path d="M 374.059636 271.215789 
L 408.858545 271.215789 
" clip-path="url(#paa6b1f6fa7)" style="fill: none; stroke: #797979; stroke-width: 1.5; stroke-linecap: round"/>
   </g>
   <g id="line2d_80">
    <path d="M 409.568727 278.944982 
L 444.367636 278.944982 
" clip-path="url(#paa6b1f6fa7)" style="fill: none; stroke: #797979; stroke-width: 1.5; stroke-linecap: round"/>
   </g>
   <g id="patch_20">
    <path d="M 320.440909 320.4 
L 409.213636 320.4 
" style="fill: none; stroke: #262626; stroke-width: 1.25; stroke-linejoin: miter; stroke-linecap: square"/>
   </g>
   <g id="text_29">
    <path d="M 296.416989 251.216191 
L 297.823239 251.216191 
L 297.823239 252.727441 
L 296.416989 252.727441 
L 296.416989 251.216191 
z
M 300.944801 251.622441 
L 303.511051 251.622441 
L 303.511051 252.727441 
L 299.272301 252.727441 
L 299.272301 251.622441 
L 301.401051 249.742441 
Q 301.687301 249.484941 301.823551 249.238691 
Q 301.959801 248.992441 301.959801 248.727441 
Q 301.959801 248.317441 301.684801 248.067441 
Q 301.409801 247.817441 300.952301 247.817441 
Q 300.601051 247.817441 300.182301 247.967441 
Q 299.764801 248.117441 299.288551 248.414941 
L 299.288551 247.133691 
Q 299.796051 246.966191 300.292301 246.878691 
Q 300.788551 246.789941 301.264801 246.789941 
Q 302.312301 246.789941 302.892301 247.251191 
Q 303.472301 247.711191 303.472301 248.536191 
Q 303.472301 249.012441 303.226051 249.424941 
Q 302.979801 249.836191 302.191051 250.528691 
L 300.944801 251.622441 
z
M 305.053707 246.894941 
L 308.792457 246.894941 
L 308.792457 248.001191 
L 306.253707 248.001191 
L 306.253707 248.903691 
Q 306.424957 248.856191 306.598707 248.831191 
Q 306.772457 248.804941 306.959957 248.804941 
Q 308.026207 248.804941 308.619957 249.338691 
Q 309.213707 249.872441 309.213707 250.824941 
Q 309.213707 251.769941 308.567457 252.306191 
Q 307.921207 252.841191 306.772457 252.841191 
Q 306.276207 252.841191 305.789957 252.744941 
Q 305.303707 252.648691 304.823707 252.453691 
L 304.823707 251.269941 
Q 305.299957 251.543691 305.727457 251.681191 
Q 306.154957 251.817441 306.534957 251.817441 
Q 307.081207 251.817441 307.394957 251.549941 
Q 307.709957 251.282441 307.709957 250.824941 
Q 307.709957 250.363691 307.394957 250.098691 
Q 307.081207 249.832441 306.534957 249.832441 
Q 306.209957 249.832441 305.842457 249.917441 
Q 305.476207 250.001191 305.053707 250.176191 
L 305.053707 246.894941 
z
" style="fill: #ffffff; stroke: #797979; stroke-width: 2"/>
    <path d="M 296.416989 251.216191 
L 297.823239 251.216191 
L 297.823239 252.727441 
L 296.416989 252.727441 
L 296.416989 251.216191 
z
M 300.944801 251.622441 
L 303.511051 251.622441 
L 303.511051 252.727441 
L 299.272301 252.727441 
L 299.272301 251.622441 
L 301.401051 249.742441 
Q 301.687301 249.484941 301.823551 249.238691 
Q 301.959801 248.992441 301.959801 248.727441 
Q 301.959801 248.317441 301.684801 248.067441 
Q 301.409801 247.817441 300.952301 247.817441 
Q 300.601051 247.817441 300.182301 247.967441 
Q 299.764801 248.117441 299.288551 248.414941 
L 299.288551 247.133691 
Q 299.796051 246.966191 300.292301 246.878691 
Q 300.788551 246.789941 301.264801 246.789941 
Q 302.312301 246.789941 302.892301 247.251191 
Q 303.472301 247.711191 303.472301 248.536191 
Q 303.472301 249.012441 303.226051 249.424941 
Q 302.979801 249.836191 302.191051 250.528691 
L 300.944801 251.622441 
z
M 305.053707 246.894941 
L 308.792457 246.894941 
L 308.792457 248.001191 
L 306.253707 248.001191 
L 306.253707 248.903691 
Q 306.424957 248.856191 306.598707 248.831191 
Q 306.772457 248.804941 306.959957 248.804941 
Q 308.026207 248.804941 308.619957 249.338691 
Q 309.213707 249.872441 309.213707 250.824941 
Q 309.213707 251.769941 308.567457 252.306191 
Q 307.921207 252.841191 306.772457 252.841191 
Q 306.276207 252.841191 305.789957 252.744941 
Q 305.303707 252.648691 304.823707 252.453691 
L 304.823707 251.269941 
Q 305.299957 251.543691 305.727457 251.681191 
Q 306.154957 251.817441 306.534957 251.817441 
Q 307.081207 251.817441 307.394957 251.549941 
Q 307.709957 251.282441 307.709957 250.824941 
Q 307.709957 250.363691 307.394957 250.098691 
Q 307.081207 249.832441 306.534957 249.832441 
Q 306.209957 249.832441 305.842457 249.917441 
Q 305.476207 250.001191 305.053707 250.176191 
L 305.053707 246.894941 
z
" style="fill: #ffffff"/>
   </g>
   <g id="text_30">
    <path d="M 331.92608 258.033563 
L 333.33233 258.033563 
L 333.33233 259.544813 
L 331.92608 259.544813 
L 331.92608 258.033563 
z
M 336.453892 258.439813 
L 339.020142 258.439813 
L 339.020142 259.544813 
L 334.781392 259.544813 
L 334.781392 258.439813 
L 336.910142 256.559813 
Q 337.196392 256.302313 337.332642 256.056063 
Q 337.468892 255.809813 337.468892 255.544813 
Q 337.468892 255.134813 337.193892 254.884813 
Q 336.918892 254.634813 336.461392 254.634813 
Q 336.110142 254.634813 335.691392 254.784813 
Q 335.273892 254.934813 334.797642 255.232313 
L 334.797642 253.951063 
Q 335.305142 253.783563 335.801392 253.696063 
Q 336.297642 253.607313 336.773892 253.607313 
Q 337.821392 253.607313 338.401392 254.068563 
Q 338.981392 254.528563 338.981392 255.353563 
Q 338.981392 255.829813 338.735142 256.242313 
Q 338.488892 256.653563 337.700142 257.346063 
L 336.453892 258.439813 
z
M 343.441548 256.399813 
Q 344.031548 256.552313 344.337798 256.929813 
Q 344.645298 257.306063 344.645298 257.888563 
Q 344.645298 258.756063 343.980298 259.207313 
Q 343.316548 259.658563 342.044048 259.658563 
Q 341.594048 259.658563 341.142798 259.586063 
Q 340.691548 259.513563 340.250298 259.368563 
L 340.250298 258.208563 
Q 340.672798 258.419813 341.087798 258.527313 
Q 341.504048 258.634813 341.906548 258.634813 
Q 342.504048 258.634813 342.822798 258.428563 
Q 343.141548 258.221063 343.141548 257.833563 
Q 343.141548 257.434813 342.815298 257.229813 
Q 342.489048 257.024813 341.851548 257.024813 
L 341.250298 257.024813 
L 341.250298 256.056063 
L 341.882798 256.056063 
Q 342.450298 256.056063 342.726548 255.878563 
Q 343.004048 255.701063 343.004048 255.337313 
Q 343.004048 255.002313 342.734048 254.818563 
Q 342.465298 254.634813 341.972798 254.634813 
Q 341.610298 254.634813 341.239048 254.717313 
Q 340.867798 254.798563 340.500298 254.958563 
L 340.500298 253.857313 
Q 340.945298 253.732313 341.382798 253.669813 
Q 341.820298 253.607313 342.242798 253.607313 
Q 343.379048 253.607313 343.942798 253.981063 
Q 344.507798 254.353563 344.507798 255.103563 
Q 344.507798 255.614813 344.237798 255.941063 
Q 343.969048 256.267313 343.441548 256.399813 
z
" style="fill: #ffffff; stroke: #797979; stroke-width: 2"/>
    <path d="M 331.92608 258.033563 
L 333.33233 258.033563 
L 333.33233 259.544813 
L 331.92608 259.544813 
L 331.92608 258.033563 
z
M 336.453892 258.439813 
L 339.020142 258.439813 
L 339.020142 259.544813 
L 334.781392 259.544813 
L 334.781392 258.439813 
L 336.910142 256.559813 
Q 337.196392 256.302313 337.332642 256.056063 
Q 337.468892 255.809813 337.468892 255.544813 
Q 337.468892 255.134813 337.193892 254.884813 
Q 336.918892 254.634813 336.461392 254.634813 
Q 336.110142 254.634813 335.691392 254.784813 
Q 335.273892 254.934813 334.797642 255.232313 
L 334.797642 253.951063 
Q 335.305142 253.783563 335.801392 253.696063 
Q 336.297642 253.607313 336.773892 253.607313 
Q 337.821392 253.607313 338.401392 254.068563 
Q 338.981392 254.528563 338.981392 255.353563 
Q 338.981392 255.829813 338.735142 256.242313 
Q 338.488892 256.653563 337.700142 257.346063 
L 336.453892 258.439813 
z
M 343.441548 256.399813 
Q 344.031548 256.552313 344.337798 256.929813 
Q 344.645298 257.306063 344.645298 257.888563 
Q 344.645298 258.756063 343.980298 259.207313 
Q 343.316548 259.658563 342.044048 259.658563 
Q 341.594048 259.658563 341.142798 259.586063 
Q 340.691548 259.513563 340.250298 259.368563 
L 340.250298 258.208563 
Q 340.672798 258.419813 341.087798 258.527313 
Q 341.504048 258.634813 341.906548 258.634813 
Q 342.504048 258.634813 342.822798 258.428563 
Q 343.141548 258.221063 343.141548 257.833563 
Q 343.141548 257.434813 342.815298 257.229813 
Q 342.489048 257.024813 341.851548 257.024813 
L 341.250298 257.024813 
L 341.250298 256.056063 
L 341.882798 256.056063 
Q 342.450298 256.056063 342.726548 255.878563 
Q 343.004048 255.701063 343.004048 255.337313 
Q 343.004048 255.002313 342.734048 254.818563 
Q 342.465298 254.634813 341.972798 254.634813 
Q 341.610298 254.634813 341.239048 254.717313 
Q 340.867798 254.798563 340.500298 254.958563 
L 340.500298 253.857313 
Q 340.945298 253.732313 341.382798 253.669813 
Q 341.820298 253.607313 342.242798 253.607313 
Q 343.379048 253.607313 343.942798 253.981063 
Q 344.507798 254.353563 344.507798 255.103563 
Q 344.507798 255.614813 344.237798 255.941063 
Q 343.969048 256.267313 343.441548 256.399813 
z
" style="fill: #ffffff"/>
   </g>
   <g id="text_31">
    <path d="M 385.189716 271.912039 
L 386.595966 271.912039 
L 386.595966 273.423289 
L 385.189716 273.423289 
L 385.189716 271.912039 
z
M 388.350028 272.384539 
L 389.678778 272.384539 
L 389.678778 268.614539 
L 388.315028 268.895789 
L 388.315028 267.872039 
L 389.670028 267.590789 
L 391.100028 267.590789 
L 391.100028 272.384539 
L 392.428778 272.384539 
L 392.428778 273.423289 
L 388.350028 273.423289 
L 388.350028 272.384539 
z
M 395.763935 270.813289 
Q 395.342685 270.813289 395.115185 271.044539 
Q 394.888935 271.274539 394.888935 271.704539 
Q 394.888935 272.134539 395.115185 272.363289 
Q 395.342685 272.590789 395.763935 272.590789 
Q 396.182685 272.590789 396.405185 272.363289 
Q 396.627685 272.134539 396.627685 271.704539 
Q 396.627685 271.270789 396.405185 271.042039 
Q 396.182685 270.813289 395.763935 270.813289 
z
M 394.666435 270.318289 
Q 394.135185 270.157039 393.865185 269.825789 
Q 393.596435 269.493289 393.596435 268.997039 
Q 393.596435 268.259539 394.146435 267.873289 
Q 394.697685 267.485789 395.763935 267.485789 
Q 396.822685 267.485789 397.372685 267.870789 
Q 397.923935 268.255789 397.923935 268.997039 
Q 397.923935 269.493289 397.652685 269.825789 
Q 397.381435 270.157039 396.850185 270.318289 
Q 397.443935 270.482039 397.746435 270.850789 
Q 398.048935 271.219539 398.048935 271.782039 
Q 398.048935 272.649539 397.472685 273.093289 
Q 396.896435 273.537039 395.763935 273.537039 
Q 394.627685 273.537039 394.047685 273.093289 
Q 393.467685 272.649539 393.467685 271.782039 
Q 393.467685 271.219539 393.770185 270.850789 
Q 394.072685 270.482039 394.666435 270.318289 
z
M 395.017685 269.149539 
Q 395.017685 269.497039 395.211435 269.684539 
Q 395.405185 269.872039 395.763935 269.872039 
Q 396.115185 269.872039 396.306435 269.684539 
Q 396.498935 269.497039 396.498935 269.149539 
Q 396.498935 268.802039 396.306435 268.617039 
Q 396.115185 268.430789 395.763935 268.430789 
Q 395.405185 268.430789 395.211435 268.618289 
Q 395.017685 268.805789 395.017685 269.149539 
z
" style="fill: #ffffff; stroke: #797979; stroke-width: 2"/>
    <path d="M 385.189716 271.912039 
L 386.595966 271.912039 
L 386.595966 273.423289 
L 385.189716 273.423289 
L 385.189716 271.912039 
z
M 388.350028 272.384539 
L 389.678778 272.384539 
L 389.678778 268.614539 
L 388.315028 268.895789 
L 388.315028 267.872039 
L 389.670028 267.590789 
L 391.100028 267.590789 
L 391.100028 272.384539 
L 392.428778 272.384539 
L 392.428778 273.423289 
L 388.350028 273.423289 
L 388.350028 272.384539 
z
M 395.763935 270.813289 
Q 395.342685 270.813289 395.115185 271.044539 
Q 394.888935 271.274539 394.888935 271.704539 
Q 394.888935 272.134539 395.115185 272.363289 
Q 395.342685 272.590789 395.763935 272.590789 
Q 396.182685 272.590789 396.405185 272.363289 
Q 396.627685 272.134539 396.627685 271.704539 
Q 396.627685 271.270789 396.405185 271.042039 
Q 396.182685 270.813289 395.763935 270.813289 
z
M 394.666435 270.318289 
Q 394.135185 270.157039 393.865185 269.825789 
Q 393.596435 269.493289 393.596435 268.997039 
Q 393.596435 268.259539 394.146435 267.873289 
Q 394.697685 267.485789 395.763935 267.485789 
Q 396.822685 267.485789 397.372685 267.870789 
Q 397.923935 268.255789 397.923935 268.997039 
Q 397.923935 269.493289 397.652685 269.825789 
Q 397.381435 270.157039 396.850185 270.318289 
Q 397.443935 270.482039 397.746435 270.850789 
Q 398.048935 271.219539 398.048935 271.782039 
Q 398.048935 272.649539 397.472685 273.093289 
Q 396.896435 273.537039 395.763935 273.537039 
Q 394.627685 273.537039 394.047685 273.093289 
Q 393.467685 272.649539 393.467685 271.782039 
Q 393.467685 271.219539 393.770185 270.850789 
Q 394.072685 270.482039 394.666435 270.318289 
z
M 395.017685 269.149539 
Q 395.017685 269.497039 395.211435 269.684539 
Q 395.405185 269.872039 395.763935 269.872039 
Q 396.115185 269.872039 396.306435 269.684539 
Q 396.498935 269.497039 396.498935 269.149539 
Q 396.498935 268.802039 396.306435 268.617039 
Q 396.115185 268.430789 395.763935 268.430789 
Q 395.405185 268.430789 395.211435 268.618289 
Q 395.017685 268.805789 395.017685 269.149539 
z
" style="fill: #ffffff"/>
   </g>
   <g id="text_32">
    <path d="M 420.698807 279.641232 
L 422.105057 279.641232 
L 422.105057 281.152482 
L 420.698807 281.152482 
L 420.698807 279.641232 
z
M 423.859119 280.113732 
L 425.187869 280.113732 
L 425.187869 276.343732 
L 423.824119 276.624982 
L 423.824119 275.601232 
L 425.179119 275.319982 
L 426.609119 275.319982 
L 426.609119 280.113732 
L 427.937869 280.113732 
L 427.937869 281.152482 
L 423.859119 281.152482 
L 423.859119 280.113732 
z
M 429.335526 275.319982 
L 433.074276 275.319982 
L 433.074276 276.426232 
L 430.535526 276.426232 
L 430.535526 277.328732 
Q 430.706776 277.281232 430.880526 277.256232 
Q 431.054276 277.229982 431.241776 277.229982 
Q 432.308026 277.229982 432.901776 277.763732 
Q 433.495526 278.297482 433.495526 279.249982 
Q 433.495526 280.194982 432.849276 280.731232 
Q 432.203026 281.266232 431.054276 281.266232 
Q 430.558026 281.266232 430.071776 281.169982 
Q 429.585526 281.073732 429.105526 280.878732 
L 429.105526 279.694982 
Q 429.581776 279.968732 430.009276 280.106232 
Q 430.436776 280.242482 430.816776 280.242482 
Q 431.363026 280.242482 431.676776 279.974982 
Q 431.991776 279.707482 431.991776 279.249982 
Q 431.991776 278.788732 431.676776 278.523732 
Q 431.363026 278.257482 430.816776 278.257482 
Q 430.491776 278.257482 430.124276 278.342482 
Q 429.758026 278.426232 429.335526 278.601232 
L 429.335526 275.319982 
z
" style="fill: #ffffff; stroke: #797979; stroke-width: 2"/>
    <path d="M 420.698807 279.641232 
L 422.105057 279.641232 
L 422.105057 281.152482 
L 420.698807 281.152482 
L 420.698807 279.641232 
z
M 423.859119 280.113732 
L 425.187869 280.113732 
L 425.187869 276.343732 
L 423.824119 276.624982 
L 423.824119 275.601232 
L 425.179119 275.319982 
L 426.609119 275.319982 
L 426.609119 280.113732 
L 427.937869 280.113732 
L 427.937869 281.152482 
L 423.859119 281.152482 
L 423.859119 280.113732 
z
M 429.335526 275.319982 
L 433.074276 275.319982 
L 433.074276 276.426232 
L 430.535526 276.426232 
L 430.535526 277.328732 
Q 430.706776 277.281232 430.880526 277.256232 
Q 431.054276 277.229982 431.241776 277.229982 
Q 432.308026 277.229982 432.901776 277.763732 
Q 433.495526 278.297482 433.495526 279.249982 
Q 433.495526 280.194982 432.849276 280.731232 
Q 432.203026 281.266232 431.054276 281.266232 
Q 430.558026 281.266232 430.071776 281.169982 
Q 429.585526 281.073732 429.105526 280.878732 
L 429.105526 279.694982 
Q 429.581776 279.968732 430.009276 280.106232 
Q 430.436776 280.242482 430.816776 280.242482 
Q 431.363026 280.242482 431.676776 279.974982 
Q 431.991776 279.707482 431.991776 279.249982 
Q 431.991776 278.788732 431.676776 278.523732 
Q 431.363026 278.257482 430.816776 278.257482 
Q 430.491776 278.257482 430.124276 278.342482 
Q 429.758026 278.426232 429.335526 278.601232 
L 429.335526 275.319982 
z
" style="fill: #ffffff"/>
   </g>
   <g id="text_33">
    <!-- p ≤ 0.001 -->
    <g style="fill: #262626" transform="translate(379.386136 25.844375) scale(0.12 -0.12)">
     <use xlink:href="#DejaVuSans-70"/>
     <use xlink:href="#DejaVuSans-20" x="63.476562"/>
     <use xlink:href="#DejaVuSans-2264" x="95.263672"/>
     <use xlink:href="#DejaVuSans-20" x="179.052734"/>
     <use xlink:href="#DejaVuSans-30" x="210.839844"/>
     <use xlink:href="#DejaVuSans-2e" x="274.462891"/>
     <use xlink:href="#DejaVuSans-30" x="306.25"/>
     <use xlink:href="#DejaVuSans-30" x="369.873047"/>
     <use xlink:href="#DejaVuSans-31" x="433.496094"/>
    </g>
   </g>
   <g id="text_34">
    <!-- p = 0.75 -->
    <g style="fill: #262626" transform="translate(294.430909 25.844375) scale(0.12 -0.12)">
     <defs>
      <path id="DejaVuSans-3d" d="M 678 2906 
L 4684 2906 
L 4684 2381 
L 678 2381 
L 678 2906 
z
M 678 1631 
L 4684 1631 
L 4684 1100 
L 678 1100 
L 678 1631 
z
" transform="scale(0.015625)"/>
      <path id="DejaVuSans-37" d="M 525 4666 
L 3525 4666 
L 3525 4397 
L 1831 0 
L 1172 0 
L 2766 4134 
L 525 4134 
L 525 4666 
z
" transform="scale(0.015625)"/>
     </defs>
     <use xlink:href="#DejaVuSans-70"/>
     <use xlink:href="#DejaVuSans-20" x="63.476562"/>
     <use xlink:href="#DejaVuSans-3d" x="95.263672"/>
     <use xlink:href="#DejaVuSans-20" x="179.052734"/>
     <use xlink:href="#DejaVuSans-30" x="210.839844"/>
     <use xlink:href="#DejaVuSans-2e" x="274.462891"/>
     <use xlink:href="#DejaVuSans-37" x="306.25"/>
     <use xlink:href="#DejaVuSans-35" x="369.873047"/>
    </g>
   </g>
   <g id="legend_2">
    <g id="patch_21">
     <path d="M 312.028281 84.291875 
L 445.9 84.291875 
Q 448.1 84.291875 448.1 82.091875 
L 448.1 50.9 
Q 448.1 48.7 445.9 48.7 
L 312.028281 48.7 
Q 309.828281 48.7 309.828281 50.9 
L 309.828281 82.091875 
Q 309.828281 84.291875 312.028281 84.291875 
z
" style="fill: #ffffff; opacity: 0.8; stroke: #cccccc; stroke-linejoin: miter"/>
    </g>
    <g id="patch_22">
     <path d="M 314.228281 61.458281 
L 336.228281 61.458281 
L 336.228281 53.758281 
L 314.228281 53.758281 
z
" style="fill: #c0c7d4; stroke: #797979; stroke-width: 0.75; stroke-linejoin: miter"/>
    </g>
    <g id="text_35">
     <!-- scans only -->
     <g style="fill: #262626" transform="translate(345.028281 61.458281) scale(0.11 -0.11)">
      <use xlink:href="#DejaVuSans-73"/>
      <use xlink:href="#DejaVuSans-63" x="52.099609"/>
      <use xlink:href="#DejaVuSans-61" x="107.080078"/>
      <use xlink:href="#DejaVuSans-6e" x="168.359375"/>
      <use xlink:href="#DejaVuSans-73" x="231.738281"/>
      <use xlink:href="#DejaVuSans-20" x="283.837891"/>
      <use xlink:href="#DejaVuSans-6f" x="315.625"/>
      <use xlink:href="#DejaVuSans-6e" x="376.806641"/>
      <use xlink:href="#DejaVuSans-6c" x="440.185547"/>
      <use xlink:href="#DejaVuSans-79" x="467.96875"/>
     </g>
    </g>
    <g id="patch_23">
     <path d="M 314.228281 77.604219 
L 336.228281 77.604219 
L 336.228281 69.904219 
L 314.228281 69.904219 
z
" style="fill: #dbbdbc; stroke: #797979; stroke-width: 0.75; stroke-linejoin: miter"/>
    </g>
    <g id="text_36">
     <!-- scans &amp; user feed -->
     <g style="fill: #262626" transform="translate(345.028281 77.604219) scale(0.11 -0.11)">
      <use xlink:href="#DejaVuSans-73"/>
      <use xlink:href="#DejaVuSans-63" x="52.099609"/>
      <use xlink:href="#DejaVuSans-61" x="107.080078"/>
      <use xlink:href="#DejaVuSans-6e" x="168.359375"/>
      <use xlink:href="#DejaVuSans-73" x="231.738281"/>
      <use xlink:href="#DejaVuSans-20" x="283.837891"/>
      <use xlink:href="#DejaVuSans-26" x="315.625"/>
      <use xlink:href="#DejaVuSans-20" x="393.603516"/>
      <use xlink:href="#DejaVuSans-75" x="425.390625"/>
      <use xlink:href="#DejaVuSans-73" x="488.769531"/>
      <use xlink:href="#DejaVuSans-65" x="540.869141"/>
      <use xlink:href="#DejaVuSans-72" x="602.392578"/>
      <use xlink:href="#DejaVuSans-20" x="643.505859"/>
      <use xlink:href="#DejaVuSans-66" x="675.292969"/>
      <use xlink:href="#DejaVuSans-65" x="710.498047"/>
      <use xlink:href="#DejaVuSans-65" x="772.021484"/>
      <use xlink:href="#DejaVuSans-64" x="833.544922"/>
     </g>
    </g>
   </g>
  </g>
 </g>
 <defs>
  <clipPath id="p0a3af5607e">
   <rect x="63" y="43.2" width="177.545455" height="277.2"/>
  </clipPath>
  <clipPath id="paa6b1f6fa7">
   <rect x="276.054545" y="43.2" width="177.545455" height="277.2"/>
  </clipPath>
 </defs>
</svg>
